<svg width="256" height="256" viewBox="0 0 256 256" version="1.1" xmlns="http://www.w3.org/2000/svg">
  <rect x="0" y="0" width="100%" height="100%" fill="rgb(13, 15, 17)"/>
  <g transform="translate(60, 45) scale(.9)" fill="rgb(255, 255, 255)" >
    <path d="M 88.184 142.773 L 60.449 142.773 L 26.074 30.762 L 25.195 30.762 A 3010.184 3010.184 0 0 1 25.918 44.627 Q 27.051 67.441 27.051 76.367 L 27.051 142.773 L 0 142.773 L 0 0 L 41.211 0 L 75 109.18 L 75.586 109.18 L 111.426 0 L 152.637 0 L 152.637 142.773 L 124.414 142.773 L 124.414 75.195 A 379.387 379.387 0 0 1 124.442 70.728 Q 124.469 68.439 124.522 65.889 A 663.16 663.16 0 0 1 124.561 64.16 A 321.405 321.405 0 0 1 124.652 61.089 Q 124.927 52.856 125.879 30.957 L 125 30.957 L 88.184 142.773 Z" vector-effect="non-scaling-stroke"/>
  </g>
  <rect x="53" y="190" width="150" height="22" fill="rgb(92, 247, 151)"/>
</svg>