<?xml version="1.0" standalone="no"?>
<!DOCTYPE svg PUBLIC "-//W3C//DTD SVG 20010904//EN"
 "http://www.w3.org/TR/2001/REC-SVG-20010904/DTD/svg10.dtd">
<svg version="1.0" xmlns="http://www.w3.org/2000/svg"
 width="700.000000pt" height="700.000000pt" viewBox="0 0 700.000000 700.000000"
 preserveAspectRatio="xMidYMid meet">
<metadata>
Created by potrace 1.14, written by Peter Selinger 2001-2017
</metadata>
<g transform="translate(0.000000,700.000000) scale(0.100000,-0.100000)"
fill="#000000" stroke="none">
<path d="M0 3500 l0 -3500 3500 0 3500 0 0 3500 0 3500 -3500 0 -3500 0 0
-3500z m3064 947 c225 -727 413 -1333 418 -1347 8 -20 11 -22 18 -10 6 11 754
2285 866 2633 l16 47 509 0 509 0 0 -1755 0 -1755 -351 0 -351 0 5 1063 c4
942 9 1171 32 1585 5 82 3 103 -7 100 -7 -3 -215 -621 -463 -1374 l-451 -1369
-344 0 -345 0 -420 1369 c-255 830 -425 1371 -434 1374 -10 3 -12 -12 -7 -79
29 -371 39 -769 43 -1686 l5 -983 -336 0 -336 0 0 1755 0 1755 508 0 507 0
409 -1323z m2486 -2947 l0 -300 -2050 0 -2050 0 0 300 0 300 2050 0 2050 0 0
-300z"/>
</g>
</svg>
