<?xml version="1.0" encoding="utf-8" standalone="no"?>
<!DOCTYPE svg PUBLIC "-//W3C//DTD SVG 1.1//EN"
  "http://www.w3.org/Graphics/SVG/1.1/DTD/svg11.dtd">
<svg height="252pt" version="1.1" viewBox="0 0 360 252" width="360pt" xmlns="http://www.w3.org/2000/svg" xmlns:xlink="http://www.w3.org/1999/xlink">
 <metadata>
  <rdf:RDF xmlns:cc="http://creativecommons.org/ns#" xmlns:dc="http://purl.org/dc/elements/1.1/" xmlns:rdf="http://www.w3.org/1999/02/22-rdf-syntax-ns#">
   <cc:Work>
    <dc:type rdf:resource="http://purl.org/dc/dcmitype/StillImage"/>
    <dc:date>2022-02-04T19:11:07.093278</dc:date>
    <dc:format>image/svg+xml</dc:format>
    <dc:creator>
     <cc:Agent>
      <dc:title>Matplotlib v3.4.3, https://matplotlib.org/</dc:title>
     </cc:Agent>
    </dc:creator>
   </cc:Work>
  </rdf:RDF>
 </metadata>
 <defs>
  <style type="text/css">*{stroke-linecap:butt;stroke-linejoin:round;}</style>
 </defs>
 <g id="figure_1">
  <g id="patch_1">
   <path d="M 0 252 
L 360 252 
L 360 0 
L 0 0 
z
" style="fill:#ffffff;"/>
  </g>
  <g id="axes_1">
   <g id="patch_2">
    <path d="M 57.17 210.04 
L 349.2 210.04 
L 349.2 26.88 
L 57.17 26.88 
z
" style="fill:#ffffff;"/>
   </g>
   <g id="patch_3">
    <path clip-path="url(#p5511fec338)" d="M 70.444091 210.04 
L 73.862312 210.04 
L 73.862312 209.809436 
L 70.444091 209.809436 
z
" style="fill:#061332;"/>
   </g>
   <g id="patch_4">
    <path clip-path="url(#p5511fec338)" d="M 74.242114 210.04 
L 77.660335 210.04 
L 77.660335 206.383915 
L 74.242114 206.383915 
z
" style="fill:#061332;"/>
   </g>
   <g id="patch_5">
    <path clip-path="url(#p5511fec338)" d="M 78.040137 210.04 
L 81.458358 210.04 
L 81.458358 200.982131 
L 78.040137 200.982131 
z
" style="fill:#061332;"/>
   </g>
   <g id="patch_6">
    <path clip-path="url(#p5511fec338)" d="M 81.83816 210.04 
L 85.256381 210.04 
L 85.256381 197.095481 
L 81.83816 197.095481 
z
" style="fill:#061332;"/>
   </g>
   <g id="patch_7">
    <path clip-path="url(#p5511fec338)" d="M 85.636184 210.04 
L 89.054404 210.04 
L 89.054404 206.285101 
L 85.636184 206.285101 
z
" style="fill:#061332;"/>
   </g>
   <g id="patch_8">
    <path clip-path="url(#p5511fec338)" d="M 89.434207 210.04 
L 92.852427 210.04 
L 92.852427 199.170557 
L 89.434207 199.170557 
z
" style="fill:#061332;"/>
   </g>
   <g id="patch_9">
    <path clip-path="url(#p5511fec338)" d="M 93.23223 210.04 
L 96.650451 210.04 
L 96.650451 201.410321 
L 93.23223 201.410321 
z
" style="fill:#061332;"/>
   </g>
   <g id="patch_10">
    <path clip-path="url(#p5511fec338)" d="M 97.030253 210.04 
L 100.448474 210.04 
L 100.448474 200.356314 
L 97.030253 200.356314 
z
" style="fill:#061332;"/>
   </g>
   <g id="patch_11">
    <path clip-path="url(#p5511fec338)" d="M 100.828276 210.04 
L 104.246497 210.04 
L 104.246497 181.944136 
L 100.828276 181.944136 
z
" style="fill:#061332;"/>
   </g>
   <g id="patch_12">
    <path clip-path="url(#p5511fec338)" d="M 104.626299 210.04 
L 108.04452 210.04 
L 108.04452 187.708235 
L 104.626299 187.708235 
z
" style="fill:#061332;"/>
   </g>
   <g id="patch_13">
    <path clip-path="url(#p5511fec338)" d="M 108.424322 210.04 
L 111.842543 210.04 
L 111.842543 189.980937 
L 108.424322 189.980937 
z
" style="fill:#061332;"/>
   </g>
   <g id="patch_14">
    <path clip-path="url(#p5511fec338)" d="M 112.222346 210.04 
L 115.640566 210.04 
L 115.640566 188.004674 
L 112.222346 188.004674 
z
" style="fill:#061332;"/>
   </g>
   <g id="patch_15">
    <path clip-path="url(#p5511fec338)" d="M 116.020369 210.04 
L 119.43859 210.04 
L 119.43859 189.223369 
L 116.020369 189.223369 
z
" style="fill:#061332;"/>
   </g>
   <g id="patch_16">
    <path clip-path="url(#p5511fec338)" d="M 119.818392 210.04 
L 123.236613 210.04 
L 123.236613 146.766665 
L 119.818392 146.766665 
z
" style="fill:#061332;"/>
   </g>
   <g id="patch_17">
    <path clip-path="url(#p5511fec338)" d="M 123.616415 210.04 
L 127.034636 210.04 
L 127.034636 171.634634 
L 123.616415 171.634634 
z
" style="fill:#061332;"/>
   </g>
   <g id="patch_18">
    <path clip-path="url(#p5511fec338)" d="M 127.414438 210.04 
L 130.832659 210.04 
L 130.832659 168.933742 
L 127.414438 168.933742 
z
" style="fill:#061332;"/>
   </g>
   <g id="patch_19">
    <path clip-path="url(#p5511fec338)" d="M 131.212461 210.04 
L 134.630682 210.04 
L 134.630682 150.982692 
L 131.212461 150.982692 
z
" style="fill:#061332;"/>
   </g>
   <g id="patch_20">
    <path clip-path="url(#p5511fec338)" d="M 135.010484 210.04 
L 138.428705 210.04 
L 138.428705 146.338475 
L 135.010484 146.338475 
z
" style="fill:#061332;"/>
   </g>
   <g id="patch_21">
    <path clip-path="url(#p5511fec338)" d="M 138.808508 210.04 
L 142.226728 210.04 
L 142.226728 93.605206 
L 138.808508 93.605206 
z
" style="fill:#061332;"/>
   </g>
   <g id="patch_22">
    <path clip-path="url(#p5511fec338)" d="M 142.606531 210.04 
L 146.024752 210.04 
L 146.024752 138.861616 
L 142.606531 138.861616 
z
" style="fill:#061332;"/>
   </g>
   <g id="patch_23">
    <path clip-path="url(#p5511fec338)" d="M 146.404554 210.04 
L 149.822775 210.04 
L 149.822775 105.693345 
L 146.404554 105.693345 
z
" style="fill:#061332;"/>
   </g>
   <g id="patch_24">
    <path clip-path="url(#p5511fec338)" d="M 150.202577 210.04 
L 153.620798 210.04 
L 153.620798 122.063385 
L 150.202577 122.063385 
z
" style="fill:#061332;"/>
   </g>
   <g id="patch_25">
    <path clip-path="url(#p5511fec338)" d="M 154.0006 210.04 
L 157.418821 210.04 
L 157.418821 105.561594 
L 154.0006 105.561594 
z
" style="fill:#061332;"/>
   </g>
   <g id="patch_26">
    <path clip-path="url(#p5511fec338)" d="M 157.798623 210.04 
L 161.216844 210.04 
L 161.216844 35.601905 
L 157.798623 35.601905 
z
" style="fill:#061332;"/>
   </g>
   <g id="patch_27">
    <path clip-path="url(#p5511fec338)" d="M 161.596647 210.04 
L 165.014867 210.04 
L 165.014867 112.742014 
L 161.596647 112.742014 
z
" style="fill:#061332;"/>
   </g>
   <g id="patch_28">
    <path clip-path="url(#p5511fec338)" d="M 165.39467 210.04 
L 168.81289 210.04 
L 168.81289 123.018579 
L 165.39467 123.018579 
z
" style="fill:#061332;"/>
   </g>
   <g id="patch_29">
    <path clip-path="url(#p5511fec338)" d="M 169.192693 210.04 
L 172.610914 210.04 
L 172.610914 107.043791 
L 169.192693 107.043791 
z
" style="fill:#061332;"/>
   </g>
   <g id="patch_30">
    <path clip-path="url(#p5511fec338)" d="M 172.990716 210.04 
L 176.408937 210.04 
L 176.408937 113.730145 
L 172.990716 113.730145 
z
" style="fill:#061332;"/>
   </g>
   <g id="patch_31">
    <path clip-path="url(#p5511fec338)" d="M 176.788739 210.04 
L 180.20696 210.04 
L 180.20696 104.04646 
L 176.788739 104.04646 
z
" style="fill:#061332;"/>
   </g>
   <g id="patch_32">
    <path clip-path="url(#p5511fec338)" d="M 180.586762 210.04 
L 184.004983 210.04 
L 184.004983 80.364248 
L 180.586762 80.364248 
z
" style="fill:#061332;"/>
   </g>
   <g id="patch_33">
    <path clip-path="url(#p5511fec338)" d="M 184.384785 210.04 
L 187.803006 210.04 
L 187.803006 127.366356 
L 184.384785 127.366356 
z
" style="fill:#061332;"/>
   </g>
   <g id="patch_34">
    <path clip-path="url(#p5511fec338)" d="M 188.182809 210.04 
L 191.601029 210.04 
L 191.601029 102.267823 
L 188.182809 102.267823 
z
" style="fill:#061332;"/>
   </g>
   <g id="patch_35">
    <path clip-path="url(#p5511fec338)" d="M 191.980832 210.04 
L 195.399053 210.04 
L 195.399053 105.034591 
L 191.980832 105.034591 
z
" style="fill:#061332;"/>
   </g>
   <g id="patch_36">
    <path clip-path="url(#p5511fec338)" d="M 195.778855 210.04 
L 199.197076 210.04 
L 199.197076 127.432231 
L 195.778855 127.432231 
z
" style="fill:#061332;"/>
   </g>
   <g id="patch_37">
    <path clip-path="url(#p5511fec338)" d="M 199.576878 210.04 
L 202.995099 210.04 
L 202.995099 124.896028 
L 199.576878 124.896028 
z
" style="fill:#061332;"/>
   </g>
   <g id="patch_38">
    <path clip-path="url(#p5511fec338)" d="M 203.374901 210.04 
L 206.793122 210.04 
L 206.793122 127.300481 
L 203.374901 127.300481 
z
" style="fill:#061332;"/>
   </g>
   <g id="patch_39">
    <path clip-path="url(#p5511fec338)" d="M 207.172924 210.04 
L 210.591145 210.04 
L 210.591145 99.764558 
L 207.172924 99.764558 
z
" style="fill:#061332;"/>
   </g>
   <g id="patch_40">
    <path clip-path="url(#p5511fec338)" d="M 210.970947 210.04 
L 214.389168 210.04 
L 214.389168 114.553588 
L 210.970947 114.553588 
z
" style="fill:#061332;"/>
   </g>
   <g id="patch_41">
    <path clip-path="url(#p5511fec338)" d="M 214.768971 210.04 
L 218.187191 210.04 
L 218.187191 151.674384 
L 214.768971 151.674384 
z
" style="fill:#061332;"/>
   </g>
   <g id="patch_42">
    <path clip-path="url(#p5511fec338)" d="M 218.566994 210.04 
L 221.985215 210.04 
L 221.985215 147.820672 
L 218.566994 147.820672 
z
" style="fill:#061332;"/>
   </g>
   <g id="patch_43">
    <path clip-path="url(#p5511fec338)" d="M 222.365017 210.04 
L 225.783238 210.04 
L 225.783238 157.273794 
L 222.365017 157.273794 
z
" style="fill:#061332;"/>
   </g>
   <g id="patch_44">
    <path clip-path="url(#p5511fec338)" d="M 226.16304 210.04 
L 229.581261 210.04 
L 229.581261 144.493963 
L 226.16304 144.493963 
z
" style="fill:#061332;"/>
   </g>
   <g id="patch_45">
    <path clip-path="url(#p5511fec338)" d="M 229.961063 210.04 
L 233.379284 210.04 
L 233.379284 167.912673 
L 229.961063 167.912673 
z
" style="fill:#061332;"/>
   </g>
   <g id="patch_46">
    <path clip-path="url(#p5511fec338)" d="M 233.759086 210.04 
L 237.177307 210.04 
L 237.177307 160.172312 
L 233.759086 160.172312 
z
" style="fill:#061332;"/>
   </g>
   <g id="patch_47">
    <path clip-path="url(#p5511fec338)" d="M 237.55711 210.04 
L 240.97533 210.04 
L 240.97533 160.732253 
L 237.55711 160.732253 
z
" style="fill:#061332;"/>
   </g>
   <g id="patch_48">
    <path clip-path="url(#p5511fec338)" d="M 241.355133 210.04 
L 244.773353 210.04 
L 244.773353 185.007343 
L 241.355133 185.007343 
z
" style="fill:#061332;"/>
   </g>
   <g id="patch_49">
    <path clip-path="url(#p5511fec338)" d="M 245.153156 210.04 
L 248.571377 210.04 
L 248.571377 173.215644 
L 245.153156 173.215644 
z
" style="fill:#061332;"/>
   </g>
   <g id="patch_50">
    <path clip-path="url(#p5511fec338)" d="M 248.951179 210.04 
L 252.3694 210.04 
L 252.3694 133.130455 
L 248.951179 133.130455 
z
" style="fill:#061332;"/>
   </g>
   <g id="patch_51">
    <path clip-path="url(#p5511fec338)" d="M 252.749202 210.04 
L 256.167423 210.04 
L 256.167423 168.472614 
L 252.749202 168.472614 
z
" style="fill:#061332;"/>
   </g>
   <g id="patch_52">
    <path clip-path="url(#p5511fec338)" d="M 256.547225 210.04 
L 259.965446 210.04 
L 259.965446 189.717435 
L 256.547225 189.717435 
z
" style="fill:#061332;"/>
   </g>
   <g id="patch_53">
    <path clip-path="url(#p5511fec338)" d="M 260.345248 210.04 
L 263.763469 210.04 
L 263.763469 184.974405 
L 260.345248 184.974405 
z
" style="fill:#061332;"/>
   </g>
   <g id="patch_54">
    <path clip-path="url(#p5511fec338)" d="M 264.143272 210.04 
L 267.561492 210.04 
L 267.561492 197.326045 
L 264.143272 197.326045 
z
" style="fill:#061332;"/>
   </g>
   <g id="patch_55">
    <path clip-path="url(#p5511fec338)" d="M 267.941295 210.04 
L 271.359516 210.04 
L 271.359516 194.229901 
L 267.941295 194.229901 
z
" style="fill:#061332;"/>
   </g>
   <g id="patch_56">
    <path clip-path="url(#p5511fec338)" d="M 271.739318 210.04 
L 275.157539 210.04 
L 275.157539 197.424858 
L 271.739318 197.424858 
z
" style="fill:#061332;"/>
   </g>
   <g id="patch_57">
    <path clip-path="url(#p5511fec338)" d="M 275.537341 210.04 
L 278.955562 210.04 
L 278.955562 199.631685 
L 275.537341 199.631685 
z
" style="fill:#061332;"/>
   </g>
   <g id="patch_58">
    <path clip-path="url(#p5511fec338)" d="M 279.335364 210.04 
L 282.753585 210.04 
L 282.753585 194.164025 
L 279.335364 194.164025 
z
" style="fill:#061332;"/>
   </g>
   <g id="patch_59">
    <path clip-path="url(#p5511fec338)" d="M 283.133387 210.04 
L 286.551608 210.04 
L 286.551608 198.907055 
L 283.133387 198.907055 
z
" style="fill:#061332;"/>
   </g>
   <g id="patch_60">
    <path clip-path="url(#p5511fec338)" d="M 286.93141 210.04 
L 290.349631 210.04 
L 290.349631 197.754235 
L 286.93141 197.754235 
z
" style="fill:#061332;"/>
   </g>
   <g id="patch_61">
    <path clip-path="url(#p5511fec338)" d="M 290.729434 210.04 
L 294.147654 210.04 
L 294.147654 202.266701 
L 290.729434 202.266701 
z
" style="fill:#061332;"/>
   </g>
   <g id="patch_62">
    <path clip-path="url(#p5511fec338)" d="M 294.527457 210.04 
L 297.945678 210.04 
L 297.945678 203.419521 
L 294.527457 203.419521 
z
" style="fill:#061332;"/>
   </g>
   <g id="patch_63">
    <path clip-path="url(#p5511fec338)" d="M 298.32548 210.04 
L 301.743701 210.04 
L 301.743701 202.167888 
L 298.32548 202.167888 
z
" style="fill:#061332;"/>
   </g>
   <g id="patch_64">
    <path clip-path="url(#p5511fec338)" d="M 302.123503 210.04 
L 305.541724 210.04 
L 305.541724 204.86878 
L 302.123503 204.86878 
z
" style="fill:#061332;"/>
   </g>
   <g id="patch_65">
    <path clip-path="url(#p5511fec338)" d="M 305.921526 210.04 
L 309.339747 210.04 
L 309.339747 205.758098 
L 305.921526 205.758098 
z
" style="fill:#061332;"/>
   </g>
   <g id="patch_66">
    <path clip-path="url(#p5511fec338)" d="M 309.719549 210.04 
L 313.13777 210.04 
L 313.13777 203.650085 
L 309.719549 203.650085 
z
" style="fill:#061332;"/>
   </g>
   <g id="patch_67">
    <path clip-path="url(#p5511fec338)" d="M 313.517573 210.04 
L 316.935793 210.04 
L 316.935793 205.362846 
L 313.517573 205.362846 
z
" style="fill:#061332;"/>
   </g>
   <g id="patch_68">
    <path clip-path="url(#p5511fec338)" d="M 317.315596 210.04 
L 320.733816 210.04 
L 320.733816 202.464327 
L 317.315596 202.464327 
z
" style="fill:#061332;"/>
   </g>
   <g id="patch_69">
    <path clip-path="url(#p5511fec338)" d="M 321.113619 210.04 
L 324.53184 210.04 
L 324.53184 206.054537 
L 321.113619 206.054537 
z
" style="fill:#061332;"/>
   </g>
   <g id="patch_70">
    <path clip-path="url(#p5511fec338)" d="M 324.911642 210.04 
L 328.329863 210.04 
L 328.329863 204.572341 
L 324.911642 204.572341 
z
" style="fill:#061332;"/>
   </g>
   <g id="patch_71">
    <path clip-path="url(#p5511fec338)" d="M 328.709665 210.04 
L 332.127886 210.04 
L 332.127886 206.44979 
L 328.709665 206.44979 
z
" style="fill:#061332;"/>
   </g>
   <g id="patch_72">
    <path clip-path="url(#p5511fec338)" d="M 332.507688 210.04 
L 335.925909 210.04 
L 335.925909 204.769967 
L 332.507688 204.769967 
z
" style="fill:#061332;"/>
   </g>
   <g id="matplotlib.axis_1">
    <g id="xtick_1">
     <g id="line2d_1">
      <defs>
       <path d="M 0 0 
L 0 3.5 
" id="m0be7e14be4" style="stroke:#000000;stroke-width:0.8;"/>
      </defs>
      <g>
       <use style="stroke:#000000;stroke-width:0.8;" x="72.153201" xlink:href="#m0be7e14be4" y="210.04"/>
      </g>
     </g>
     <g id="text_1">
      <!-- 1 -->
      <g transform="translate(68.971951 224.638438)scale(0.1 -0.1)">
       <defs>
        <path d="M 794 531 
L 1825 531 
L 1825 4091 
L 703 3866 
L 703 4441 
L 1819 4666 
L 2450 4666 
L 2450 531 
L 3481 531 
L 3481 0 
L 794 0 
L 794 531 
z
" id="DejaVuSans-31" transform="scale(0.015625)"/>
       </defs>
       <use xlink:href="#DejaVuSans-31"/>
      </g>
     </g>
    </g>
    <g id="xtick_2">
     <g id="line2d_2">
      <g>
       <use style="stroke:#000000;stroke-width:0.8;" x="91.143317" xlink:href="#m0be7e14be4" y="210.04"/>
      </g>
     </g>
     <g id="text_2">
      <!-- 6 -->
      <g transform="translate(87.962067 224.638438)scale(0.1 -0.1)">
       <defs>
        <path d="M 2113 2584 
Q 1688 2584 1439 2293 
Q 1191 2003 1191 1497 
Q 1191 994 1439 701 
Q 1688 409 2113 409 
Q 2538 409 2786 701 
Q 3034 994 3034 1497 
Q 3034 2003 2786 2293 
Q 2538 2584 2113 2584 
z
M 3366 4563 
L 3366 3988 
Q 3128 4100 2886 4159 
Q 2644 4219 2406 4219 
Q 1781 4219 1451 3797 
Q 1122 3375 1075 2522 
Q 1259 2794 1537 2939 
Q 1816 3084 2150 3084 
Q 2853 3084 3261 2657 
Q 3669 2231 3669 1497 
Q 3669 778 3244 343 
Q 2819 -91 2113 -91 
Q 1303 -91 875 529 
Q 447 1150 447 2328 
Q 447 3434 972 4092 
Q 1497 4750 2381 4750 
Q 2619 4750 2861 4703 
Q 3103 4656 3366 4563 
z
" id="DejaVuSans-36" transform="scale(0.015625)"/>
       </defs>
       <use xlink:href="#DejaVuSans-36"/>
      </g>
     </g>
    </g>
    <g id="xtick_3">
     <g id="line2d_3">
      <g>
       <use style="stroke:#000000;stroke-width:0.8;" x="110.133433" xlink:href="#m0be7e14be4" y="210.04"/>
      </g>
     </g>
     <g id="text_3">
      <!-- 11 -->
      <g transform="translate(103.770933 224.638438)scale(0.1 -0.1)">
       <use xlink:href="#DejaVuSans-31"/>
       <use x="63.623047" xlink:href="#DejaVuSans-31"/>
      </g>
     </g>
    </g>
    <g id="xtick_4">
     <g id="line2d_4">
      <g>
       <use style="stroke:#000000;stroke-width:0.8;" x="129.123549" xlink:href="#m0be7e14be4" y="210.04"/>
      </g>
     </g>
     <g id="text_4">
      <!-- 16 -->
      <g transform="translate(122.761049 224.638438)scale(0.1 -0.1)">
       <use xlink:href="#DejaVuSans-31"/>
       <use x="63.623047" xlink:href="#DejaVuSans-36"/>
      </g>
     </g>
    </g>
    <g id="xtick_5">
     <g id="line2d_5">
      <g>
       <use style="stroke:#000000;stroke-width:0.8;" x="148.113664" xlink:href="#m0be7e14be4" y="210.04"/>
      </g>
     </g>
     <g id="text_5">
      <!-- 21 -->
      <g transform="translate(141.751164 224.638438)scale(0.1 -0.1)">
       <defs>
        <path d="M 1228 531 
L 3431 531 
L 3431 0 
L 469 0 
L 469 531 
Q 828 903 1448 1529 
Q 2069 2156 2228 2338 
Q 2531 2678 2651 2914 
Q 2772 3150 2772 3378 
Q 2772 3750 2511 3984 
Q 2250 4219 1831 4219 
Q 1534 4219 1204 4116 
Q 875 4013 500 3803 
L 500 4441 
Q 881 4594 1212 4672 
Q 1544 4750 1819 4750 
Q 2544 4750 2975 4387 
Q 3406 4025 3406 3419 
Q 3406 3131 3298 2873 
Q 3191 2616 2906 2266 
Q 2828 2175 2409 1742 
Q 1991 1309 1228 531 
z
" id="DejaVuSans-32" transform="scale(0.015625)"/>
       </defs>
       <use xlink:href="#DejaVuSans-32"/>
       <use x="63.623047" xlink:href="#DejaVuSans-31"/>
      </g>
     </g>
    </g>
    <g id="xtick_6">
     <g id="line2d_6">
      <g>
       <use style="stroke:#000000;stroke-width:0.8;" x="167.10378" xlink:href="#m0be7e14be4" y="210.04"/>
      </g>
     </g>
     <g id="text_6">
      <!-- 26 -->
      <g transform="translate(160.74128 224.638438)scale(0.1 -0.1)">
       <use xlink:href="#DejaVuSans-32"/>
       <use x="63.623047" xlink:href="#DejaVuSans-36"/>
      </g>
     </g>
    </g>
    <g id="xtick_7">
     <g id="line2d_7">
      <g>
       <use style="stroke:#000000;stroke-width:0.8;" x="186.093896" xlink:href="#m0be7e14be4" y="210.04"/>
      </g>
     </g>
     <g id="text_7">
      <!-- 31 -->
      <g transform="translate(179.731396 224.638438)scale(0.1 -0.1)">
       <defs>
        <path d="M 2597 2516 
Q 3050 2419 3304 2112 
Q 3559 1806 3559 1356 
Q 3559 666 3084 287 
Q 2609 -91 1734 -91 
Q 1441 -91 1130 -33 
Q 819 25 488 141 
L 488 750 
Q 750 597 1062 519 
Q 1375 441 1716 441 
Q 2309 441 2620 675 
Q 2931 909 2931 1356 
Q 2931 1769 2642 2001 
Q 2353 2234 1838 2234 
L 1294 2234 
L 1294 2753 
L 1863 2753 
Q 2328 2753 2575 2939 
Q 2822 3125 2822 3475 
Q 2822 3834 2567 4026 
Q 2313 4219 1838 4219 
Q 1578 4219 1281 4162 
Q 984 4106 628 3988 
L 628 4550 
Q 988 4650 1302 4700 
Q 1616 4750 1894 4750 
Q 2613 4750 3031 4423 
Q 3450 4097 3450 3541 
Q 3450 3153 3228 2886 
Q 3006 2619 2597 2516 
z
" id="DejaVuSans-33" transform="scale(0.015625)"/>
       </defs>
       <use xlink:href="#DejaVuSans-33"/>
       <use x="63.623047" xlink:href="#DejaVuSans-31"/>
      </g>
     </g>
    </g>
    <g id="xtick_8">
     <g id="line2d_8">
      <g>
       <use style="stroke:#000000;stroke-width:0.8;" x="205.084012" xlink:href="#m0be7e14be4" y="210.04"/>
      </g>
     </g>
     <g id="text_8">
      <!-- 36 -->
      <g transform="translate(198.721512 224.638438)scale(0.1 -0.1)">
       <use xlink:href="#DejaVuSans-33"/>
       <use x="63.623047" xlink:href="#DejaVuSans-36"/>
      </g>
     </g>
    </g>
    <g id="xtick_9">
     <g id="line2d_9">
      <g>
       <use style="stroke:#000000;stroke-width:0.8;" x="224.074127" xlink:href="#m0be7e14be4" y="210.04"/>
      </g>
     </g>
     <g id="text_9">
      <!-- 41 -->
      <g transform="translate(217.711627 224.638438)scale(0.1 -0.1)">
       <defs>
        <path d="M 2419 4116 
L 825 1625 
L 2419 1625 
L 2419 4116 
z
M 2253 4666 
L 3047 4666 
L 3047 1625 
L 3713 1625 
L 3713 1100 
L 3047 1100 
L 3047 0 
L 2419 0 
L 2419 1100 
L 313 1100 
L 313 1709 
L 2253 4666 
z
" id="DejaVuSans-34" transform="scale(0.015625)"/>
       </defs>
       <use xlink:href="#DejaVuSans-34"/>
       <use x="63.623047" xlink:href="#DejaVuSans-31"/>
      </g>
     </g>
    </g>
    <g id="xtick_10">
     <g id="line2d_10">
      <g>
       <use style="stroke:#000000;stroke-width:0.8;" x="243.064243" xlink:href="#m0be7e14be4" y="210.04"/>
      </g>
     </g>
     <g id="text_10">
      <!-- 46 -->
      <g transform="translate(236.701743 224.638438)scale(0.1 -0.1)">
       <use xlink:href="#DejaVuSans-34"/>
       <use x="63.623047" xlink:href="#DejaVuSans-36"/>
      </g>
     </g>
    </g>
    <g id="xtick_11">
     <g id="line2d_11">
      <g>
       <use style="stroke:#000000;stroke-width:0.8;" x="262.054359" xlink:href="#m0be7e14be4" y="210.04"/>
      </g>
     </g>
     <g id="text_11">
      <!-- 51 -->
      <g transform="translate(255.691859 224.638438)scale(0.1 -0.1)">
       <defs>
        <path d="M 691 4666 
L 3169 4666 
L 3169 4134 
L 1269 4134 
L 1269 2991 
Q 1406 3038 1543 3061 
Q 1681 3084 1819 3084 
Q 2600 3084 3056 2656 
Q 3513 2228 3513 1497 
Q 3513 744 3044 326 
Q 2575 -91 1722 -91 
Q 1428 -91 1123 -41 
Q 819 9 494 109 
L 494 744 
Q 775 591 1075 516 
Q 1375 441 1709 441 
Q 2250 441 2565 725 
Q 2881 1009 2881 1497 
Q 2881 1984 2565 2268 
Q 2250 2553 1709 2553 
Q 1456 2553 1204 2497 
Q 953 2441 691 2322 
L 691 4666 
z
" id="DejaVuSans-35" transform="scale(0.015625)"/>
       </defs>
       <use xlink:href="#DejaVuSans-35"/>
       <use x="63.623047" xlink:href="#DejaVuSans-31"/>
      </g>
     </g>
    </g>
    <g id="xtick_12">
     <g id="line2d_12">
      <g>
       <use style="stroke:#000000;stroke-width:0.8;" x="281.044475" xlink:href="#m0be7e14be4" y="210.04"/>
      </g>
     </g>
     <g id="text_12">
      <!-- 56 -->
      <g transform="translate(274.681975 224.638438)scale(0.1 -0.1)">
       <use xlink:href="#DejaVuSans-35"/>
       <use x="63.623047" xlink:href="#DejaVuSans-36"/>
      </g>
     </g>
    </g>
    <g id="xtick_13">
     <g id="line2d_13">
      <g>
       <use style="stroke:#000000;stroke-width:0.8;" x="300.03459" xlink:href="#m0be7e14be4" y="210.04"/>
      </g>
     </g>
     <g id="text_13">
      <!-- 61 -->
      <g transform="translate(293.67209 224.638438)scale(0.1 -0.1)">
       <use xlink:href="#DejaVuSans-36"/>
       <use x="63.623047" xlink:href="#DejaVuSans-31"/>
      </g>
     </g>
    </g>
    <g id="xtick_14">
     <g id="line2d_14">
      <g>
       <use style="stroke:#000000;stroke-width:0.8;" x="319.024706" xlink:href="#m0be7e14be4" y="210.04"/>
      </g>
     </g>
     <g id="text_14">
      <!-- 66 -->
      <g transform="translate(312.662206 224.638438)scale(0.1 -0.1)">
       <use xlink:href="#DejaVuSans-36"/>
       <use x="63.623047" xlink:href="#DejaVuSans-36"/>
      </g>
     </g>
    </g>
    <g id="text_15">
     <!-- Package name length -->
     <g transform="translate(149.163906 238.316563)scale(0.1 -0.1)">
      <defs>
       <path d="M 1259 4147 
L 1259 2394 
L 2053 2394 
Q 2494 2394 2734 2622 
Q 2975 2850 2975 3272 
Q 2975 3691 2734 3919 
Q 2494 4147 2053 4147 
L 1259 4147 
z
M 628 4666 
L 2053 4666 
Q 2838 4666 3239 4311 
Q 3641 3956 3641 3272 
Q 3641 2581 3239 2228 
Q 2838 1875 2053 1875 
L 1259 1875 
L 1259 0 
L 628 0 
L 628 4666 
z
" id="DejaVuSans-50" transform="scale(0.015625)"/>
       <path d="M 2194 1759 
Q 1497 1759 1228 1600 
Q 959 1441 959 1056 
Q 959 750 1161 570 
Q 1363 391 1709 391 
Q 2188 391 2477 730 
Q 2766 1069 2766 1631 
L 2766 1759 
L 2194 1759 
z
M 3341 1997 
L 3341 0 
L 2766 0 
L 2766 531 
Q 2569 213 2275 61 
Q 1981 -91 1556 -91 
Q 1019 -91 701 211 
Q 384 513 384 1019 
Q 384 1609 779 1909 
Q 1175 2209 1959 2209 
L 2766 2209 
L 2766 2266 
Q 2766 2663 2505 2880 
Q 2244 3097 1772 3097 
Q 1472 3097 1187 3025 
Q 903 2953 641 2809 
L 641 3341 
Q 956 3463 1253 3523 
Q 1550 3584 1831 3584 
Q 2591 3584 2966 3190 
Q 3341 2797 3341 1997 
z
" id="DejaVuSans-61" transform="scale(0.015625)"/>
       <path d="M 3122 3366 
L 3122 2828 
Q 2878 2963 2633 3030 
Q 2388 3097 2138 3097 
Q 1578 3097 1268 2742 
Q 959 2388 959 1747 
Q 959 1106 1268 751 
Q 1578 397 2138 397 
Q 2388 397 2633 464 
Q 2878 531 3122 666 
L 3122 134 
Q 2881 22 2623 -34 
Q 2366 -91 2075 -91 
Q 1284 -91 818 406 
Q 353 903 353 1747 
Q 353 2603 823 3093 
Q 1294 3584 2113 3584 
Q 2378 3584 2631 3529 
Q 2884 3475 3122 3366 
z
" id="DejaVuSans-63" transform="scale(0.015625)"/>
       <path d="M 581 4863 
L 1159 4863 
L 1159 1991 
L 2875 3500 
L 3609 3500 
L 1753 1863 
L 3688 0 
L 2938 0 
L 1159 1709 
L 1159 0 
L 581 0 
L 581 4863 
z
" id="DejaVuSans-6b" transform="scale(0.015625)"/>
       <path d="M 2906 1791 
Q 2906 2416 2648 2759 
Q 2391 3103 1925 3103 
Q 1463 3103 1205 2759 
Q 947 2416 947 1791 
Q 947 1169 1205 825 
Q 1463 481 1925 481 
Q 2391 481 2648 825 
Q 2906 1169 2906 1791 
z
M 3481 434 
Q 3481 -459 3084 -895 
Q 2688 -1331 1869 -1331 
Q 1566 -1331 1297 -1286 
Q 1028 -1241 775 -1147 
L 775 -588 
Q 1028 -725 1275 -790 
Q 1522 -856 1778 -856 
Q 2344 -856 2625 -561 
Q 2906 -266 2906 331 
L 2906 616 
Q 2728 306 2450 153 
Q 2172 0 1784 0 
Q 1141 0 747 490 
Q 353 981 353 1791 
Q 353 2603 747 3093 
Q 1141 3584 1784 3584 
Q 2172 3584 2450 3431 
Q 2728 3278 2906 2969 
L 2906 3500 
L 3481 3500 
L 3481 434 
z
" id="DejaVuSans-67" transform="scale(0.015625)"/>
       <path d="M 3597 1894 
L 3597 1613 
L 953 1613 
Q 991 1019 1311 708 
Q 1631 397 2203 397 
Q 2534 397 2845 478 
Q 3156 559 3463 722 
L 3463 178 
Q 3153 47 2828 -22 
Q 2503 -91 2169 -91 
Q 1331 -91 842 396 
Q 353 884 353 1716 
Q 353 2575 817 3079 
Q 1281 3584 2069 3584 
Q 2775 3584 3186 3129 
Q 3597 2675 3597 1894 
z
M 3022 2063 
Q 3016 2534 2758 2815 
Q 2500 3097 2075 3097 
Q 1594 3097 1305 2825 
Q 1016 2553 972 2059 
L 3022 2063 
z
" id="DejaVuSans-65" transform="scale(0.015625)"/>
       <path id="DejaVuSans-20" transform="scale(0.015625)"/>
       <path d="M 3513 2113 
L 3513 0 
L 2938 0 
L 2938 2094 
Q 2938 2591 2744 2837 
Q 2550 3084 2163 3084 
Q 1697 3084 1428 2787 
Q 1159 2491 1159 1978 
L 1159 0 
L 581 0 
L 581 3500 
L 1159 3500 
L 1159 2956 
Q 1366 3272 1645 3428 
Q 1925 3584 2291 3584 
Q 2894 3584 3203 3211 
Q 3513 2838 3513 2113 
z
" id="DejaVuSans-6e" transform="scale(0.015625)"/>
       <path d="M 3328 2828 
Q 3544 3216 3844 3400 
Q 4144 3584 4550 3584 
Q 5097 3584 5394 3201 
Q 5691 2819 5691 2113 
L 5691 0 
L 5113 0 
L 5113 2094 
Q 5113 2597 4934 2840 
Q 4756 3084 4391 3084 
Q 3944 3084 3684 2787 
Q 3425 2491 3425 1978 
L 3425 0 
L 2847 0 
L 2847 2094 
Q 2847 2600 2669 2842 
Q 2491 3084 2119 3084 
Q 1678 3084 1418 2786 
Q 1159 2488 1159 1978 
L 1159 0 
L 581 0 
L 581 3500 
L 1159 3500 
L 1159 2956 
Q 1356 3278 1631 3431 
Q 1906 3584 2284 3584 
Q 2666 3584 2933 3390 
Q 3200 3197 3328 2828 
z
" id="DejaVuSans-6d" transform="scale(0.015625)"/>
       <path d="M 603 4863 
L 1178 4863 
L 1178 0 
L 603 0 
L 603 4863 
z
" id="DejaVuSans-6c" transform="scale(0.015625)"/>
       <path d="M 1172 4494 
L 1172 3500 
L 2356 3500 
L 2356 3053 
L 1172 3053 
L 1172 1153 
Q 1172 725 1289 603 
Q 1406 481 1766 481 
L 2356 481 
L 2356 0 
L 1766 0 
Q 1100 0 847 248 
Q 594 497 594 1153 
L 594 3053 
L 172 3053 
L 172 3500 
L 594 3500 
L 594 4494 
L 1172 4494 
z
" id="DejaVuSans-74" transform="scale(0.015625)"/>
       <path d="M 3513 2113 
L 3513 0 
L 2938 0 
L 2938 2094 
Q 2938 2591 2744 2837 
Q 2550 3084 2163 3084 
Q 1697 3084 1428 2787 
Q 1159 2491 1159 1978 
L 1159 0 
L 581 0 
L 581 4863 
L 1159 4863 
L 1159 2956 
Q 1366 3272 1645 3428 
Q 1925 3584 2291 3584 
Q 2894 3584 3203 3211 
Q 3513 2838 3513 2113 
z
" id="DejaVuSans-68" transform="scale(0.015625)"/>
      </defs>
      <use xlink:href="#DejaVuSans-50"/>
      <use x="55.802734" xlink:href="#DejaVuSans-61"/>
      <use x="117.082031" xlink:href="#DejaVuSans-63"/>
      <use x="172.0625" xlink:href="#DejaVuSans-6b"/>
      <use x="228.222656" xlink:href="#DejaVuSans-61"/>
      <use x="289.501953" xlink:href="#DejaVuSans-67"/>
      <use x="352.978516" xlink:href="#DejaVuSans-65"/>
      <use x="414.501953" xlink:href="#DejaVuSans-20"/>
      <use x="446.289062" xlink:href="#DejaVuSans-6e"/>
      <use x="509.667969" xlink:href="#DejaVuSans-61"/>
      <use x="570.947266" xlink:href="#DejaVuSans-6d"/>
      <use x="668.359375" xlink:href="#DejaVuSans-65"/>
      <use x="729.882812" xlink:href="#DejaVuSans-20"/>
      <use x="761.669922" xlink:href="#DejaVuSans-6c"/>
      <use x="789.453125" xlink:href="#DejaVuSans-65"/>
      <use x="850.976562" xlink:href="#DejaVuSans-6e"/>
      <use x="914.355469" xlink:href="#DejaVuSans-67"/>
      <use x="977.832031" xlink:href="#DejaVuSans-74"/>
      <use x="1017.041016" xlink:href="#DejaVuSans-68"/>
     </g>
    </g>
   </g>
   <g id="matplotlib.axis_2">
    <g id="ytick_1">
     <g id="line2d_15">
      <defs>
       <path d="M 0 0 
L -3.5 0 
" id="m449c289e84" style="stroke:#000000;stroke-width:0.8;"/>
      </defs>
      <g>
       <use style="stroke:#000000;stroke-width:0.8;" x="57.17" xlink:href="#m449c289e84" y="210.04"/>
      </g>
     </g>
     <g id="text_16">
      <!-- 0 -->
      <g transform="translate(43.8075 213.839219)scale(0.1 -0.1)">
       <defs>
        <path d="M 2034 4250 
Q 1547 4250 1301 3770 
Q 1056 3291 1056 2328 
Q 1056 1369 1301 889 
Q 1547 409 2034 409 
Q 2525 409 2770 889 
Q 3016 1369 3016 2328 
Q 3016 3291 2770 3770 
Q 2525 4250 2034 4250 
z
M 2034 4750 
Q 2819 4750 3233 4129 
Q 3647 3509 3647 2328 
Q 3647 1150 3233 529 
Q 2819 -91 2034 -91 
Q 1250 -91 836 529 
Q 422 1150 422 2328 
Q 422 3509 836 4129 
Q 1250 4750 2034 4750 
z
" id="DejaVuSans-30" transform="scale(0.015625)"/>
       </defs>
       <use xlink:href="#DejaVuSans-30"/>
      </g>
     </g>
    </g>
    <g id="ytick_2">
     <g id="line2d_16">
      <g>
       <use style="stroke:#000000;stroke-width:0.8;" x="57.17" xlink:href="#m449c289e84" y="177.102293"/>
      </g>
     </g>
     <g id="text_17">
      <!-- 1000 -->
      <g transform="translate(24.72 180.901512)scale(0.1 -0.1)">
       <use xlink:href="#DejaVuSans-31"/>
       <use x="63.623047" xlink:href="#DejaVuSans-30"/>
       <use x="127.246094" xlink:href="#DejaVuSans-30"/>
       <use x="190.869141" xlink:href="#DejaVuSans-30"/>
      </g>
     </g>
    </g>
    <g id="ytick_3">
     <g id="line2d_17">
      <g>
       <use style="stroke:#000000;stroke-width:0.8;" x="57.17" xlink:href="#m449c289e84" y="144.164586"/>
      </g>
     </g>
     <g id="text_18">
      <!-- 2000 -->
      <g transform="translate(24.72 147.963805)scale(0.1 -0.1)">
       <use xlink:href="#DejaVuSans-32"/>
       <use x="63.623047" xlink:href="#DejaVuSans-30"/>
       <use x="127.246094" xlink:href="#DejaVuSans-30"/>
       <use x="190.869141" xlink:href="#DejaVuSans-30"/>
      </g>
     </g>
    </g>
    <g id="ytick_4">
     <g id="line2d_18">
      <g>
       <use style="stroke:#000000;stroke-width:0.8;" x="57.17" xlink:href="#m449c289e84" y="111.22688"/>
      </g>
     </g>
     <g id="text_19">
      <!-- 3000 -->
      <g transform="translate(24.72 115.026098)scale(0.1 -0.1)">
       <use xlink:href="#DejaVuSans-33"/>
       <use x="63.623047" xlink:href="#DejaVuSans-30"/>
       <use x="127.246094" xlink:href="#DejaVuSans-30"/>
       <use x="190.869141" xlink:href="#DejaVuSans-30"/>
      </g>
     </g>
    </g>
    <g id="ytick_5">
     <g id="line2d_19">
      <g>
       <use style="stroke:#000000;stroke-width:0.8;" x="57.17" xlink:href="#m449c289e84" y="78.289173"/>
      </g>
     </g>
     <g id="text_20">
      <!-- 4000 -->
      <g transform="translate(24.72 82.088392)scale(0.1 -0.1)">
       <use xlink:href="#DejaVuSans-34"/>
       <use x="63.623047" xlink:href="#DejaVuSans-30"/>
       <use x="127.246094" xlink:href="#DejaVuSans-30"/>
       <use x="190.869141" xlink:href="#DejaVuSans-30"/>
      </g>
     </g>
    </g>
    <g id="ytick_6">
     <g id="line2d_20">
      <g>
       <use style="stroke:#000000;stroke-width:0.8;" x="57.17" xlink:href="#m449c289e84" y="45.351466"/>
      </g>
     </g>
     <g id="text_21">
      <!-- 5000 -->
      <g transform="translate(24.72 49.150685)scale(0.1 -0.1)">
       <use xlink:href="#DejaVuSans-35"/>
       <use x="63.623047" xlink:href="#DejaVuSans-30"/>
       <use x="127.246094" xlink:href="#DejaVuSans-30"/>
       <use x="190.869141" xlink:href="#DejaVuSans-30"/>
      </g>
     </g>
    </g>
    <g id="text_22">
     <!-- Occurrences -->
     <g transform="translate(18.640312 149.649844)rotate(-90)scale(0.1 -0.1)">
      <defs>
       <path d="M 2522 4238 
Q 1834 4238 1429 3725 
Q 1025 3213 1025 2328 
Q 1025 1447 1429 934 
Q 1834 422 2522 422 
Q 3209 422 3611 934 
Q 4013 1447 4013 2328 
Q 4013 3213 3611 3725 
Q 3209 4238 2522 4238 
z
M 2522 4750 
Q 3503 4750 4090 4092 
Q 4678 3434 4678 2328 
Q 4678 1225 4090 567 
Q 3503 -91 2522 -91 
Q 1538 -91 948 565 
Q 359 1222 359 2328 
Q 359 3434 948 4092 
Q 1538 4750 2522 4750 
z
" id="DejaVuSans-4f" transform="scale(0.015625)"/>
       <path d="M 544 1381 
L 544 3500 
L 1119 3500 
L 1119 1403 
Q 1119 906 1312 657 
Q 1506 409 1894 409 
Q 2359 409 2629 706 
Q 2900 1003 2900 1516 
L 2900 3500 
L 3475 3500 
L 3475 0 
L 2900 0 
L 2900 538 
Q 2691 219 2414 64 
Q 2138 -91 1772 -91 
Q 1169 -91 856 284 
Q 544 659 544 1381 
z
M 1991 3584 
L 1991 3584 
z
" id="DejaVuSans-75" transform="scale(0.015625)"/>
       <path d="M 2631 2963 
Q 2534 3019 2420 3045 
Q 2306 3072 2169 3072 
Q 1681 3072 1420 2755 
Q 1159 2438 1159 1844 
L 1159 0 
L 581 0 
L 581 3500 
L 1159 3500 
L 1159 2956 
Q 1341 3275 1631 3429 
Q 1922 3584 2338 3584 
Q 2397 3584 2469 3576 
Q 2541 3569 2628 3553 
L 2631 2963 
z
" id="DejaVuSans-72" transform="scale(0.015625)"/>
       <path d="M 2834 3397 
L 2834 2853 
Q 2591 2978 2328 3040 
Q 2066 3103 1784 3103 
Q 1356 3103 1142 2972 
Q 928 2841 928 2578 
Q 928 2378 1081 2264 
Q 1234 2150 1697 2047 
L 1894 2003 
Q 2506 1872 2764 1633 
Q 3022 1394 3022 966 
Q 3022 478 2636 193 
Q 2250 -91 1575 -91 
Q 1294 -91 989 -36 
Q 684 19 347 128 
L 347 722 
Q 666 556 975 473 
Q 1284 391 1588 391 
Q 1994 391 2212 530 
Q 2431 669 2431 922 
Q 2431 1156 2273 1281 
Q 2116 1406 1581 1522 
L 1381 1569 
Q 847 1681 609 1914 
Q 372 2147 372 2553 
Q 372 3047 722 3315 
Q 1072 3584 1716 3584 
Q 2034 3584 2315 3537 
Q 2597 3491 2834 3397 
z
" id="DejaVuSans-73" transform="scale(0.015625)"/>
      </defs>
      <use xlink:href="#DejaVuSans-4f"/>
      <use x="78.710938" xlink:href="#DejaVuSans-63"/>
      <use x="133.691406" xlink:href="#DejaVuSans-63"/>
      <use x="188.671875" xlink:href="#DejaVuSans-75"/>
      <use x="252.050781" xlink:href="#DejaVuSans-72"/>
      <use x="291.414062" xlink:href="#DejaVuSans-72"/>
      <use x="330.277344" xlink:href="#DejaVuSans-65"/>
      <use x="391.800781" xlink:href="#DejaVuSans-6e"/>
      <use x="455.179688" xlink:href="#DejaVuSans-63"/>
      <use x="510.160156" xlink:href="#DejaVuSans-65"/>
      <use x="571.683594" xlink:href="#DejaVuSans-73"/>
     </g>
    </g>
   </g>
   <g id="patch_73">
    <path d="M 57.17 210.04 
L 57.17 26.88 
" style="fill:none;stroke:#000000;stroke-linecap:square;stroke-linejoin:miter;stroke-width:0.8;"/>
   </g>
   <g id="patch_74">
    <path d="M 349.2 210.04 
L 349.2 26.88 
" style="fill:none;stroke:#000000;stroke-linecap:square;stroke-linejoin:miter;stroke-width:0.8;"/>
   </g>
   <g id="patch_75">
    <path d="M 57.17 210.04 
L 349.2 210.04 
" style="fill:none;stroke:#000000;stroke-linecap:square;stroke-linejoin:miter;stroke-width:0.8;"/>
   </g>
   <g id="patch_76">
    <path d="M 57.17 26.88 
L 349.2 26.88 
" style="fill:none;stroke:#000000;stroke-linecap:square;stroke-linejoin:miter;stroke-width:0.8;"/>
   </g>
   <g id="text_23">
    <!-- Number of Characters in Package Names -->
    <g transform="translate(79.848438 20.88)scale(0.12 -0.12)">
     <defs>
      <path d="M 628 4666 
L 1478 4666 
L 3547 763 
L 3547 4666 
L 4159 4666 
L 4159 0 
L 3309 0 
L 1241 3903 
L 1241 0 
L 628 0 
L 628 4666 
z
" id="DejaVuSans-4e" transform="scale(0.015625)"/>
      <path d="M 3116 1747 
Q 3116 2381 2855 2742 
Q 2594 3103 2138 3103 
Q 1681 3103 1420 2742 
Q 1159 2381 1159 1747 
Q 1159 1113 1420 752 
Q 1681 391 2138 391 
Q 2594 391 2855 752 
Q 3116 1113 3116 1747 
z
M 1159 2969 
Q 1341 3281 1617 3432 
Q 1894 3584 2278 3584 
Q 2916 3584 3314 3078 
Q 3713 2572 3713 1747 
Q 3713 922 3314 415 
Q 2916 -91 2278 -91 
Q 1894 -91 1617 61 
Q 1341 213 1159 525 
L 1159 0 
L 581 0 
L 581 4863 
L 1159 4863 
L 1159 2969 
z
" id="DejaVuSans-62" transform="scale(0.015625)"/>
      <path d="M 1959 3097 
Q 1497 3097 1228 2736 
Q 959 2375 959 1747 
Q 959 1119 1226 758 
Q 1494 397 1959 397 
Q 2419 397 2687 759 
Q 2956 1122 2956 1747 
Q 2956 2369 2687 2733 
Q 2419 3097 1959 3097 
z
M 1959 3584 
Q 2709 3584 3137 3096 
Q 3566 2609 3566 1747 
Q 3566 888 3137 398 
Q 2709 -91 1959 -91 
Q 1206 -91 779 398 
Q 353 888 353 1747 
Q 353 2609 779 3096 
Q 1206 3584 1959 3584 
z
" id="DejaVuSans-6f" transform="scale(0.015625)"/>
      <path d="M 2375 4863 
L 2375 4384 
L 1825 4384 
Q 1516 4384 1395 4259 
Q 1275 4134 1275 3809 
L 1275 3500 
L 2222 3500 
L 2222 3053 
L 1275 3053 
L 1275 0 
L 697 0 
L 697 3053 
L 147 3053 
L 147 3500 
L 697 3500 
L 697 3744 
Q 697 4328 969 4595 
Q 1241 4863 1831 4863 
L 2375 4863 
z
" id="DejaVuSans-66" transform="scale(0.015625)"/>
      <path d="M 4122 4306 
L 4122 3641 
Q 3803 3938 3442 4084 
Q 3081 4231 2675 4231 
Q 1875 4231 1450 3742 
Q 1025 3253 1025 2328 
Q 1025 1406 1450 917 
Q 1875 428 2675 428 
Q 3081 428 3442 575 
Q 3803 722 4122 1019 
L 4122 359 
Q 3791 134 3420 21 
Q 3050 -91 2638 -91 
Q 1578 -91 968 557 
Q 359 1206 359 2328 
Q 359 3453 968 4101 
Q 1578 4750 2638 4750 
Q 3056 4750 3426 4639 
Q 3797 4528 4122 4306 
z
" id="DejaVuSans-43" transform="scale(0.015625)"/>
      <path d="M 603 3500 
L 1178 3500 
L 1178 0 
L 603 0 
L 603 3500 
z
M 603 4863 
L 1178 4863 
L 1178 4134 
L 603 4134 
L 603 4863 
z
" id="DejaVuSans-69" transform="scale(0.015625)"/>
     </defs>
     <use xlink:href="#DejaVuSans-4e"/>
     <use x="74.804688" xlink:href="#DejaVuSans-75"/>
     <use x="138.183594" xlink:href="#DejaVuSans-6d"/>
     <use x="235.595703" xlink:href="#DejaVuSans-62"/>
     <use x="299.072266" xlink:href="#DejaVuSans-65"/>
     <use x="360.595703" xlink:href="#DejaVuSans-72"/>
     <use x="401.708984" xlink:href="#DejaVuSans-20"/>
     <use x="433.496094" xlink:href="#DejaVuSans-6f"/>
     <use x="494.677734" xlink:href="#DejaVuSans-66"/>
     <use x="529.882812" xlink:href="#DejaVuSans-20"/>
     <use x="561.669922" xlink:href="#DejaVuSans-43"/>
     <use x="631.494141" xlink:href="#DejaVuSans-68"/>
     <use x="694.873047" xlink:href="#DejaVuSans-61"/>
     <use x="756.152344" xlink:href="#DejaVuSans-72"/>
     <use x="797.265625" xlink:href="#DejaVuSans-61"/>
     <use x="858.544922" xlink:href="#DejaVuSans-63"/>
     <use x="913.525391" xlink:href="#DejaVuSans-74"/>
     <use x="952.734375" xlink:href="#DejaVuSans-65"/>
     <use x="1014.257812" xlink:href="#DejaVuSans-72"/>
     <use x="1055.371094" xlink:href="#DejaVuSans-73"/>
     <use x="1107.470703" xlink:href="#DejaVuSans-20"/>
     <use x="1139.257812" xlink:href="#DejaVuSans-69"/>
     <use x="1167.041016" xlink:href="#DejaVuSans-6e"/>
     <use x="1230.419922" xlink:href="#DejaVuSans-20"/>
     <use x="1262.207031" xlink:href="#DejaVuSans-50"/>
     <use x="1318.009766" xlink:href="#DejaVuSans-61"/>
     <use x="1379.289062" xlink:href="#DejaVuSans-63"/>
     <use x="1434.269531" xlink:href="#DejaVuSans-6b"/>
     <use x="1490.429688" xlink:href="#DejaVuSans-61"/>
     <use x="1551.708984" xlink:href="#DejaVuSans-67"/>
     <use x="1615.185547" xlink:href="#DejaVuSans-65"/>
     <use x="1676.708984" xlink:href="#DejaVuSans-20"/>
     <use x="1708.496094" xlink:href="#DejaVuSans-4e"/>
     <use x="1783.300781" xlink:href="#DejaVuSans-61"/>
     <use x="1844.580078" xlink:href="#DejaVuSans-6d"/>
     <use x="1941.992188" xlink:href="#DejaVuSans-65"/>
     <use x="2003.515625" xlink:href="#DejaVuSans-73"/>
    </g>
   </g>
  </g>
 </g>
 <defs>
  <clipPath id="p5511fec338">
   <rect height="183.16" width="292.03" x="57.17" y="26.88"/>
  </clipPath>
 </defs>
</svg>
