<?xml version="1.0" encoding="utf-8" standalone="no"?>
<!DOCTYPE svg PUBLIC "-//W3C//DTD SVG 1.1//EN"
  "http://www.w3.org/Graphics/SVG/1.1/DTD/svg11.dtd">
<svg height="288pt" version="1.1" viewBox="0 0 396 288" width="396pt" xmlns="http://www.w3.org/2000/svg" xmlns:xlink="http://www.w3.org/1999/xlink">
 <metadata>
  <rdf:RDF xmlns:cc="http://creativecommons.org/ns#" xmlns:dc="http://purl.org/dc/elements/1.1/" xmlns:rdf="http://www.w3.org/1999/02/22-rdf-syntax-ns#">
   <cc:Work>
    <dc:type rdf:resource="http://purl.org/dc/dcmitype/StillImage"/>
    <dc:date>2022-01-31T21:23:10.189220</dc:date>
    <dc:format>image/svg+xml</dc:format>
    <dc:creator>
     <cc:Agent>
      <dc:title>Matplotlib v3.4.3, https://matplotlib.org/</dc:title>
     </cc:Agent>
    </dc:creator>
   </cc:Work>
  </rdf:RDF>
 </metadata>
 <defs>
  <style type="text/css">*{stroke-linecap:butt;stroke-linejoin:round;}</style>
 </defs>
 <g id="figure_1">
  <g id="patch_1">
   <path d="M 0 288 
L 396 288 
L 396 0 
L 0 0 
z
" style="fill:#ffffff;"/>
  </g>
  <g id="axes_1">
   <g id="patch_2">
    <path d="M 63.47 239.955539 
L 385.2 239.955539 
L 385.2 26.88 
L 63.47 26.88 
z
" style="fill:#ffffff;"/>
   </g>
   <g id="patch_3">
    <path clip-path="url(#pb5eb2c96a2)" d="M 78.094091 239.955539 
L 82.346654 239.955539 
L 82.346654 235.769842 
L 78.094091 235.769842 
z
" style="fill:#061332;"/>
   </g>
   <g id="patch_4">
    <path clip-path="url(#pb5eb2c96a2)" d="M 82.819161 239.955539 
L 87.071723 239.955539 
L 87.071723 235.050925 
L 82.819161 235.050925 
z
" style="fill:#061332;"/>
   </g>
   <g id="patch_5">
    <path clip-path="url(#pb5eb2c96a2)" d="M 87.54423 239.955539 
L 91.796793 239.955539 
L 91.796793 223.638776 
L 87.54423 223.638776 
z
" style="fill:#061332;"/>
   </g>
   <g id="patch_6">
    <path clip-path="url(#pb5eb2c96a2)" d="M 92.2693 239.955539 
L 96.521863 239.955539 
L 96.521863 200.958263 
L 92.2693 200.958263 
z
" style="fill:#061332;"/>
   </g>
   <g id="patch_7">
    <path clip-path="url(#pb5eb2c96a2)" d="M 96.99437 239.955539 
L 101.246933 239.955539 
L 101.246933 200.870396 
L 96.99437 200.870396 
z
" style="fill:#061332;"/>
   </g>
   <g id="patch_8">
    <path clip-path="url(#pb5eb2c96a2)" d="M 101.71944 239.955539 
L 105.972002 239.955539 
L 105.972002 188.214786 
L 101.71944 188.214786 
z
" style="fill:#061332;"/>
   </g>
   <g id="patch_9">
    <path clip-path="url(#pb5eb2c96a2)" d="M 106.444509 239.955539 
L 110.697072 239.955539 
L 110.697072 172.590315 
L 106.444509 172.590315 
z
" style="fill:#061332;"/>
   </g>
   <g id="patch_10">
    <path clip-path="url(#pb5eb2c96a2)" d="M 111.169579 239.955539 
L 115.422142 239.955539 
L 115.422142 139.030185 
L 111.169579 139.030185 
z
" style="fill:#061332;"/>
   </g>
   <g id="patch_11">
    <path clip-path="url(#pb5eb2c96a2)" d="M 115.894649 239.955539 
L 120.147212 239.955539 
L 120.147212 126.079021 
L 115.894649 126.079021 
z
" style="fill:#061332;"/>
   </g>
   <g id="patch_12">
    <path clip-path="url(#pb5eb2c96a2)" d="M 120.619719 239.955539 
L 124.872282 239.955539 
L 124.872282 110.877911 
L 120.619719 110.877911 
z
" style="fill:#061332;"/>
   </g>
   <g id="patch_13">
    <path clip-path="url(#pb5eb2c96a2)" d="M 125.344789 239.955539 
L 129.597351 239.955539 
L 129.597351 89.83227 
L 125.344789 89.83227 
z
" style="fill:#061332;"/>
   </g>
   <g id="patch_14">
    <path clip-path="url(#pb5eb2c96a2)" d="M 130.069858 239.955539 
L 134.322421 239.955539 
L 134.322421 74.274364 
L 130.069858 74.274364 
z
" style="fill:#061332;"/>
   </g>
   <g id="patch_15">
    <path clip-path="url(#pb5eb2c96a2)" d="M 134.794928 239.955539 
L 139.047491 239.955539 
L 139.047491 65.274583 
L 134.794928 65.274583 
z
" style="fill:#061332;"/>
   </g>
   <g id="patch_16">
    <path clip-path="url(#pb5eb2c96a2)" d="M 139.519998 239.955539 
L 143.772561 239.955539 
L 143.772561 59.451352 
L 139.519998 59.451352 
z
" style="fill:#061332;"/>
   </g>
   <g id="patch_17">
    <path clip-path="url(#pb5eb2c96a2)" d="M 144.245068 239.955539 
L 148.49763 239.955539 
L 148.49763 37.026454 
L 144.245068 37.026454 
z
" style="fill:#061332;"/>
   </g>
   <g id="patch_18">
    <path clip-path="url(#pb5eb2c96a2)" d="M 148.970137 239.955539 
L 153.2227 239.955539 
L 153.2227 55.52127 
L 148.970137 55.52127 
z
" style="fill:#061332;"/>
   </g>
   <g id="patch_19">
    <path clip-path="url(#pb5eb2c96a2)" d="M 153.695207 239.955539 
L 157.94777 239.955539 
L 157.94777 57.105551 
L 153.695207 57.105551 
z
" style="fill:#061332;"/>
   </g>
   <g id="patch_20">
    <path clip-path="url(#pb5eb2c96a2)" d="M 158.420277 239.955539 
L 162.67284 239.955539 
L 162.67284 61.067585 
L 158.420277 61.067585 
z
" style="fill:#061332;"/>
   </g>
   <g id="patch_21">
    <path clip-path="url(#pb5eb2c96a2)" d="M 163.145347 239.955539 
L 167.397909 239.955539 
L 167.397909 66.6139 
L 163.145347 66.6139 
z
" style="fill:#061332;"/>
   </g>
   <g id="patch_22">
    <path clip-path="url(#pb5eb2c96a2)" d="M 167.870416 239.955539 
L 172.122979 239.955539 
L 172.122979 80.970947 
L 167.870416 80.970947 
z
" style="fill:#061332;"/>
   </g>
   <g id="patch_23">
    <path clip-path="url(#pb5eb2c96a2)" d="M 172.595486 239.955539 
L 176.848049 239.955539 
L 176.848049 89.739077 
L 172.595486 89.739077 
z
" style="fill:#061332;"/>
   </g>
   <g id="patch_24">
    <path clip-path="url(#pb5eb2c96a2)" d="M 177.320556 239.955539 
L 181.573119 239.955539 
L 181.573119 98.536496 
L 177.320556 98.536496 
z
" style="fill:#061332;"/>
   </g>
   <g id="patch_25">
    <path clip-path="url(#pb5eb2c96a2)" d="M 182.045626 239.955539 
L 186.298188 239.955539 
L 186.298188 113.726954 
L 182.045626 113.726954 
z
" style="fill:#061332;"/>
   </g>
   <g id="patch_26">
    <path clip-path="url(#pb5eb2c96a2)" d="M 186.770695 239.955539 
L 191.023258 239.955539 
L 191.023258 125.38673 
L 186.770695 125.38673 
z
" style="fill:#061332;"/>
   </g>
   <g id="patch_27">
    <path clip-path="url(#pb5eb2c96a2)" d="M 191.495765 239.955539 
L 195.748328 239.955539 
L 195.748328 136.979939 
L 191.495765 136.979939 
z
" style="fill:#061332;"/>
   </g>
   <g id="patch_28">
    <path clip-path="url(#pb5eb2c96a2)" d="M 196.220835 239.955539 
L 200.473398 239.955539 
L 200.473398 149.071065 
L 196.220835 149.071065 
z
" style="fill:#061332;"/>
   </g>
   <g id="patch_29">
    <path clip-path="url(#pb5eb2c96a2)" d="M 200.945905 239.955539 
L 205.198467 239.955539 
L 205.198467 158.552786 
L 200.945905 158.552786 
z
" style="fill:#061332;"/>
   </g>
   <g id="patch_30">
    <path clip-path="url(#pb5eb2c96a2)" d="M 205.670974 239.955539 
L 209.923537 239.955539 
L 209.923537 167.967942 
L 205.670974 167.967942 
z
" style="fill:#061332;"/>
   </g>
   <g id="patch_31">
    <path clip-path="url(#pb5eb2c96a2)" d="M 210.396044 239.955539 
L 214.648607 239.955539 
L 214.648607 177.68664 
L 210.396044 177.68664 
z
" style="fill:#061332;"/>
   </g>
   <g id="patch_32">
    <path clip-path="url(#pb5eb2c96a2)" d="M 215.121114 239.955539 
L 219.373677 239.955539 
L 219.373677 185.717214 
L 215.121114 185.717214 
z
" style="fill:#061332;"/>
   </g>
   <g id="patch_33">
    <path clip-path="url(#pb5eb2c96a2)" d="M 219.846184 239.955539 
L 224.098747 239.955539 
L 224.098747 193.039521 
L 219.846184 193.039521 
z
" style="fill:#061332;"/>
   </g>
   <g id="patch_34">
    <path clip-path="url(#pb5eb2c96a2)" d="M 224.571253 239.955539 
L 228.823816 239.955539 
L 228.823816 199.586995 
L 224.571253 199.586995 
z
" style="fill:#061332;"/>
   </g>
   <g id="patch_35">
    <path clip-path="url(#pb5eb2c96a2)" d="M 229.296323 239.955539 
L 233.548886 239.955539 
L 233.548886 204.614091 
L 229.296323 204.614091 
z
" style="fill:#061332;"/>
   </g>
   <g id="patch_36">
    <path clip-path="url(#pb5eb2c96a2)" d="M 234.021393 239.955539 
L 238.273956 239.955539 
L 238.273956 209.862189 
L 234.021393 209.862189 
z
" style="fill:#061332;"/>
   </g>
   <g id="patch_37">
    <path clip-path="url(#pb5eb2c96a2)" d="M 238.746463 239.955539 
L 242.999026 239.955539 
L 242.999026 213.725704 
L 238.746463 213.725704 
z
" style="fill:#061332;"/>
   </g>
   <g id="patch_38">
    <path clip-path="url(#pb5eb2c96a2)" d="M 243.471533 239.955539 
L 247.724095 239.955539 
L 247.724095 218.159028 
L 243.471533 218.159028 
z
" style="fill:#061332;"/>
   </g>
   <g id="patch_39">
    <path clip-path="url(#pb5eb2c96a2)" d="M 248.196602 239.955539 
L 252.449165 239.955539 
L 252.449165 221.162505 
L 248.196602 221.162505 
z
" style="fill:#061332;"/>
   </g>
   <g id="patch_40">
    <path clip-path="url(#pb5eb2c96a2)" d="M 252.921672 239.955539 
L 257.174235 239.955539 
L 257.174235 223.99291 
L 252.921672 223.99291 
z
" style="fill:#061332;"/>
   </g>
   <g id="patch_41">
    <path clip-path="url(#pb5eb2c96a2)" d="M 257.646742 239.955539 
L 261.899305 239.955539 
L 261.899305 226.543735 
L 257.646742 226.543735 
z
" style="fill:#061332;"/>
   </g>
   <g id="patch_42">
    <path clip-path="url(#pb5eb2c96a2)" d="M 262.371812 239.955539 
L 266.624374 239.955539 
L 266.624374 227.989558 
L 262.371812 227.989558 
z
" style="fill:#061332;"/>
   </g>
   <g id="patch_43">
    <path clip-path="url(#pb5eb2c96a2)" d="M 267.096881 239.955539 
L 271.349444 239.955539 
L 271.349444 229.512598 
L 267.096881 229.512598 
z
" style="fill:#061332;"/>
   </g>
   <g id="patch_44">
    <path clip-path="url(#pb5eb2c96a2)" d="M 271.821951 239.955539 
L 276.074514 239.955539 
L 276.074514 231.392434 
L 271.821951 231.392434 
z
" style="fill:#061332;"/>
   </g>
   <g id="patch_45">
    <path clip-path="url(#pb5eb2c96a2)" d="M 276.547021 239.955539 
L 280.799584 239.955539 
L 280.799584 231.932953 
L 276.547021 231.932953 
z
" style="fill:#061332;"/>
   </g>
   <g id="patch_46">
    <path clip-path="url(#pb5eb2c96a2)" d="M 281.272091 239.955539 
L 285.524653 239.955539 
L 285.524653 233.642379 
L 281.272091 233.642379 
z
" style="fill:#061332;"/>
   </g>
   <g id="patch_47">
    <path clip-path="url(#pb5eb2c96a2)" d="M 285.99716 239.955539 
L 290.249723 239.955539 
L 290.249723 234.576972 
L 285.99716 234.576972 
z
" style="fill:#061332;"/>
   </g>
   <g id="patch_48">
    <path clip-path="url(#pb5eb2c96a2)" d="M 290.72223 239.955539 
L 294.974793 239.955539 
L 294.974793 235.258612 
L 290.72223 235.258612 
z
" style="fill:#061332;"/>
   </g>
   <g id="patch_49">
    <path clip-path="url(#pb5eb2c96a2)" d="M 295.4473 239.955539 
L 299.699863 239.955539 
L 299.699863 235.916288 
L 295.4473 235.916288 
z
" style="fill:#061332;"/>
   </g>
   <g id="patch_50">
    <path clip-path="url(#pb5eb2c96a2)" d="M 300.17237 239.955539 
L 304.424932 239.955539 
L 304.424932 236.470121 
L 300.17237 236.470121 
z
" style="fill:#061332;"/>
   </g>
   <g id="patch_51">
    <path clip-path="url(#pb5eb2c96a2)" d="M 304.897439 239.955539 
L 309.150002 239.955539 
L 309.150002 237.018628 
L 304.897439 237.018628 
z
" style="fill:#061332;"/>
   </g>
   <g id="patch_52">
    <path clip-path="url(#pb5eb2c96a2)" d="M 309.622509 239.955539 
L 313.875072 239.955539 
L 313.875072 237.266255 
L 309.622509 237.266255 
z
" style="fill:#061332;"/>
   </g>
   <g id="patch_53">
    <path clip-path="url(#pb5eb2c96a2)" d="M 314.347579 239.955539 
L 318.600142 239.955539 
L 318.600142 237.780148 
L 314.347579 237.780148 
z
" style="fill:#061332;"/>
   </g>
   <g id="patch_54">
    <path clip-path="url(#pb5eb2c96a2)" d="M 319.072649 239.955539 
L 323.325211 239.955539 
L 323.325211 238.097004 
L 319.072649 238.097004 
z
" style="fill:#061332;"/>
   </g>
   <g id="patch_55">
    <path clip-path="url(#pb5eb2c96a2)" d="M 323.797718 239.955539 
L 328.050281 239.955539 
L 328.050281 238.299366 
L 323.797718 238.299366 
z
" style="fill:#061332;"/>
   </g>
   <g id="patch_56">
    <path clip-path="url(#pb5eb2c96a2)" d="M 328.522788 239.955539 
L 332.775351 239.955539 
L 332.775351 238.746693 
L 328.522788 238.746693 
z
" style="fill:#061332;"/>
   </g>
   <g id="patch_57">
    <path clip-path="url(#pb5eb2c96a2)" d="M 333.247858 239.955539 
L 337.500421 239.955539 
L 337.500421 238.802608 
L 333.247858 238.802608 
z
" style="fill:#061332;"/>
   </g>
   <g id="patch_58">
    <path clip-path="url(#pb5eb2c96a2)" d="M 337.972928 239.955539 
L 342.225491 239.955539 
L 342.225491 239.002308 
L 337.972928 239.002308 
z
" style="fill:#061332;"/>
   </g>
   <g id="patch_59">
    <path clip-path="url(#pb5eb2c96a2)" d="M 342.697998 239.955539 
L 346.95056 239.955539 
L 346.95056 239.183368 
L 342.697998 239.183368 
z
" style="fill:#061332;"/>
   </g>
   <g id="patch_60">
    <path clip-path="url(#pb5eb2c96a2)" d="M 347.423067 239.955539 
L 351.67563 239.955539 
L 351.67563 239.20467 
L 347.423067 239.20467 
z
" style="fill:#061332;"/>
   </g>
   <g id="patch_61">
    <path clip-path="url(#pb5eb2c96a2)" d="M 352.148137 239.955539 
L 356.4007 239.955539 
L 356.4007 239.361766 
L 352.148137 239.361766 
z
" style="fill:#061332;"/>
   </g>
   <g id="patch_62">
    <path clip-path="url(#pb5eb2c96a2)" d="M 356.873207 239.955539 
L 361.12577 239.955539 
L 361.12577 239.513538 
L 356.873207 239.513538 
z
" style="fill:#061332;"/>
   </g>
   <g id="patch_63">
    <path clip-path="url(#pb5eb2c96a2)" d="M 361.598277 239.955539 
L 365.850839 239.955539 
L 365.850839 239.526851 
L 361.598277 239.526851 
z
" style="fill:#061332;"/>
   </g>
   <g id="patch_64">
    <path clip-path="url(#pb5eb2c96a2)" d="M 366.323346 239.955539 
L 370.575909 239.955539 
L 370.575909 239.62537 
L 366.323346 239.62537 
z
" style="fill:#061332;"/>
   </g>
   <g id="matplotlib.axis_1">
    <g id="xtick_1">
     <g id="line2d_1">
      <defs>
       <path d="M 0 0 
L 0 3.5 
" id="mbdb21423b2" style="stroke:#000000;stroke-width:0.8;"/>
      </defs>
      <g>
       <use style="stroke:#000000;stroke-width:0.8;" x="80.220372" xlink:href="#mbdb21423b2" y="239.955539"/>
      </g>
     </g>
     <g id="text_1">
      <!-- 1 -->
      <g transform="translate(79.922062 256.827413)rotate(-45)scale(0.1 -0.1)">
       <defs>
        <path d="M 794 531 
L 1825 531 
L 1825 4091 
L 703 3866 
L 703 4441 
L 1819 4666 
L 2450 4666 
L 2450 531 
L 3481 531 
L 3481 0 
L 794 0 
L 794 531 
z
" id="DejaVuSans-31" transform="scale(0.015625)"/>
       </defs>
       <use xlink:href="#DejaVuSans-31"/>
      </g>
     </g>
    </g>
    <g id="xtick_2">
     <g id="line2d_2">
      <g>
       <use style="stroke:#000000;stroke-width:0.8;" x="94.395582" xlink:href="#mbdb21423b2" y="239.955539"/>
      </g>
     </g>
     <g id="text_2">
      <!-- 4 -->
      <g transform="translate(94.097271 256.827413)rotate(-45)scale(0.1 -0.1)">
       <defs>
        <path d="M 2419 4116 
L 825 1625 
L 2419 1625 
L 2419 4116 
z
M 2253 4666 
L 3047 4666 
L 3047 1625 
L 3713 1625 
L 3713 1100 
L 3047 1100 
L 3047 0 
L 2419 0 
L 2419 1100 
L 313 1100 
L 313 1709 
L 2253 4666 
z
" id="DejaVuSans-34" transform="scale(0.015625)"/>
       </defs>
       <use xlink:href="#DejaVuSans-34"/>
      </g>
     </g>
    </g>
    <g id="xtick_3">
     <g id="line2d_3">
      <g>
       <use style="stroke:#000000;stroke-width:0.8;" x="108.570791" xlink:href="#mbdb21423b2" y="239.955539"/>
      </g>
     </g>
     <g id="text_3">
      <!-- 7 -->
      <g transform="translate(108.27248 256.827413)rotate(-45)scale(0.1 -0.1)">
       <defs>
        <path d="M 525 4666 
L 3525 4666 
L 3525 4397 
L 1831 0 
L 1172 0 
L 2766 4134 
L 525 4134 
L 525 4666 
z
" id="DejaVuSans-37" transform="scale(0.015625)"/>
       </defs>
       <use xlink:href="#DejaVuSans-37"/>
      </g>
     </g>
    </g>
    <g id="xtick_4">
     <g id="line2d_4">
      <g>
       <use style="stroke:#000000;stroke-width:0.8;" x="122.746" xlink:href="#mbdb21423b2" y="239.955539"/>
      </g>
     </g>
     <g id="text_4">
      <!-- 10 -->
      <g transform="translate(120.198206 261.326379)rotate(-45)scale(0.1 -0.1)">
       <defs>
        <path d="M 2034 4250 
Q 1547 4250 1301 3770 
Q 1056 3291 1056 2328 
Q 1056 1369 1301 889 
Q 1547 409 2034 409 
Q 2525 409 2770 889 
Q 3016 1369 3016 2328 
Q 3016 3291 2770 3770 
Q 2525 4250 2034 4250 
z
M 2034 4750 
Q 2819 4750 3233 4129 
Q 3647 3509 3647 2328 
Q 3647 1150 3233 529 
Q 2819 -91 2034 -91 
Q 1250 -91 836 529 
Q 422 1150 422 2328 
Q 422 3509 836 4129 
Q 1250 4750 2034 4750 
z
" id="DejaVuSans-30" transform="scale(0.015625)"/>
       </defs>
       <use xlink:href="#DejaVuSans-31"/>
       <use x="63.623047" xlink:href="#DejaVuSans-30"/>
      </g>
     </g>
    </g>
    <g id="xtick_5">
     <g id="line2d_5">
      <g>
       <use style="stroke:#000000;stroke-width:0.8;" x="136.921209" xlink:href="#mbdb21423b2" y="239.955539"/>
      </g>
     </g>
     <g id="text_5">
      <!-- 13 -->
      <g transform="translate(134.373415 261.326379)rotate(-45)scale(0.1 -0.1)">
       <defs>
        <path d="M 2597 2516 
Q 3050 2419 3304 2112 
Q 3559 1806 3559 1356 
Q 3559 666 3084 287 
Q 2609 -91 1734 -91 
Q 1441 -91 1130 -33 
Q 819 25 488 141 
L 488 750 
Q 750 597 1062 519 
Q 1375 441 1716 441 
Q 2309 441 2620 675 
Q 2931 909 2931 1356 
Q 2931 1769 2642 2001 
Q 2353 2234 1838 2234 
L 1294 2234 
L 1294 2753 
L 1863 2753 
Q 2328 2753 2575 2939 
Q 2822 3125 2822 3475 
Q 2822 3834 2567 4026 
Q 2313 4219 1838 4219 
Q 1578 4219 1281 4162 
Q 984 4106 628 3988 
L 628 4550 
Q 988 4650 1302 4700 
Q 1616 4750 1894 4750 
Q 2613 4750 3031 4423 
Q 3450 4097 3450 3541 
Q 3450 3153 3228 2886 
Q 3006 2619 2597 2516 
z
" id="DejaVuSans-33" transform="scale(0.015625)"/>
       </defs>
       <use xlink:href="#DejaVuSans-31"/>
       <use x="63.623047" xlink:href="#DejaVuSans-33"/>
      </g>
     </g>
    </g>
    <g id="xtick_6">
     <g id="line2d_6">
      <g>
       <use style="stroke:#000000;stroke-width:0.8;" x="151.096419" xlink:href="#mbdb21423b2" y="239.955539"/>
      </g>
     </g>
     <g id="text_6">
      <!-- 16 -->
      <g transform="translate(148.548625 261.326379)rotate(-45)scale(0.1 -0.1)">
       <defs>
        <path d="M 2113 2584 
Q 1688 2584 1439 2293 
Q 1191 2003 1191 1497 
Q 1191 994 1439 701 
Q 1688 409 2113 409 
Q 2538 409 2786 701 
Q 3034 994 3034 1497 
Q 3034 2003 2786 2293 
Q 2538 2584 2113 2584 
z
M 3366 4563 
L 3366 3988 
Q 3128 4100 2886 4159 
Q 2644 4219 2406 4219 
Q 1781 4219 1451 3797 
Q 1122 3375 1075 2522 
Q 1259 2794 1537 2939 
Q 1816 3084 2150 3084 
Q 2853 3084 3261 2657 
Q 3669 2231 3669 1497 
Q 3669 778 3244 343 
Q 2819 -91 2113 -91 
Q 1303 -91 875 529 
Q 447 1150 447 2328 
Q 447 3434 972 4092 
Q 1497 4750 2381 4750 
Q 2619 4750 2861 4703 
Q 3103 4656 3366 4563 
z
" id="DejaVuSans-36" transform="scale(0.015625)"/>
       </defs>
       <use xlink:href="#DejaVuSans-31"/>
       <use x="63.623047" xlink:href="#DejaVuSans-36"/>
      </g>
     </g>
    </g>
    <g id="xtick_7">
     <g id="line2d_7">
      <g>
       <use style="stroke:#000000;stroke-width:0.8;" x="165.271628" xlink:href="#mbdb21423b2" y="239.955539"/>
      </g>
     </g>
     <g id="text_7">
      <!-- 19 -->
      <g transform="translate(162.723834 261.326379)rotate(-45)scale(0.1 -0.1)">
       <defs>
        <path d="M 703 97 
L 703 672 
Q 941 559 1184 500 
Q 1428 441 1663 441 
Q 2288 441 2617 861 
Q 2947 1281 2994 2138 
Q 2813 1869 2534 1725 
Q 2256 1581 1919 1581 
Q 1219 1581 811 2004 
Q 403 2428 403 3163 
Q 403 3881 828 4315 
Q 1253 4750 1959 4750 
Q 2769 4750 3195 4129 
Q 3622 3509 3622 2328 
Q 3622 1225 3098 567 
Q 2575 -91 1691 -91 
Q 1453 -91 1209 -44 
Q 966 3 703 97 
z
M 1959 2075 
Q 2384 2075 2632 2365 
Q 2881 2656 2881 3163 
Q 2881 3666 2632 3958 
Q 2384 4250 1959 4250 
Q 1534 4250 1286 3958 
Q 1038 3666 1038 3163 
Q 1038 2656 1286 2365 
Q 1534 2075 1959 2075 
z
" id="DejaVuSans-39" transform="scale(0.015625)"/>
       </defs>
       <use xlink:href="#DejaVuSans-31"/>
       <use x="63.623047" xlink:href="#DejaVuSans-39"/>
      </g>
     </g>
    </g>
    <g id="xtick_8">
     <g id="line2d_8">
      <g>
       <use style="stroke:#000000;stroke-width:0.8;" x="179.446837" xlink:href="#mbdb21423b2" y="239.955539"/>
      </g>
     </g>
     <g id="text_8">
      <!-- 22 -->
      <g transform="translate(176.899043 261.326379)rotate(-45)scale(0.1 -0.1)">
       <defs>
        <path d="M 1228 531 
L 3431 531 
L 3431 0 
L 469 0 
L 469 531 
Q 828 903 1448 1529 
Q 2069 2156 2228 2338 
Q 2531 2678 2651 2914 
Q 2772 3150 2772 3378 
Q 2772 3750 2511 3984 
Q 2250 4219 1831 4219 
Q 1534 4219 1204 4116 
Q 875 4013 500 3803 
L 500 4441 
Q 881 4594 1212 4672 
Q 1544 4750 1819 4750 
Q 2544 4750 2975 4387 
Q 3406 4025 3406 3419 
Q 3406 3131 3298 2873 
Q 3191 2616 2906 2266 
Q 2828 2175 2409 1742 
Q 1991 1309 1228 531 
z
" id="DejaVuSans-32" transform="scale(0.015625)"/>
       </defs>
       <use xlink:href="#DejaVuSans-32"/>
       <use x="63.623047" xlink:href="#DejaVuSans-32"/>
      </g>
     </g>
    </g>
    <g id="xtick_9">
     <g id="line2d_9">
      <g>
       <use style="stroke:#000000;stroke-width:0.8;" x="193.622047" xlink:href="#mbdb21423b2" y="239.955539"/>
      </g>
     </g>
     <g id="text_9">
      <!-- 25 -->
      <g transform="translate(191.074252 261.326379)rotate(-45)scale(0.1 -0.1)">
       <defs>
        <path d="M 691 4666 
L 3169 4666 
L 3169 4134 
L 1269 4134 
L 1269 2991 
Q 1406 3038 1543 3061 
Q 1681 3084 1819 3084 
Q 2600 3084 3056 2656 
Q 3513 2228 3513 1497 
Q 3513 744 3044 326 
Q 2575 -91 1722 -91 
Q 1428 -91 1123 -41 
Q 819 9 494 109 
L 494 744 
Q 775 591 1075 516 
Q 1375 441 1709 441 
Q 2250 441 2565 725 
Q 2881 1009 2881 1497 
Q 2881 1984 2565 2268 
Q 2250 2553 1709 2553 
Q 1456 2553 1204 2497 
Q 953 2441 691 2322 
L 691 4666 
z
" id="DejaVuSans-35" transform="scale(0.015625)"/>
       </defs>
       <use xlink:href="#DejaVuSans-32"/>
       <use x="63.623047" xlink:href="#DejaVuSans-35"/>
      </g>
     </g>
    </g>
    <g id="xtick_10">
     <g id="line2d_10">
      <g>
       <use style="stroke:#000000;stroke-width:0.8;" x="207.797256" xlink:href="#mbdb21423b2" y="239.955539"/>
      </g>
     </g>
     <g id="text_10">
      <!-- 28 -->
      <g transform="translate(205.249462 261.326379)rotate(-45)scale(0.1 -0.1)">
       <defs>
        <path d="M 2034 2216 
Q 1584 2216 1326 1975 
Q 1069 1734 1069 1313 
Q 1069 891 1326 650 
Q 1584 409 2034 409 
Q 2484 409 2743 651 
Q 3003 894 3003 1313 
Q 3003 1734 2745 1975 
Q 2488 2216 2034 2216 
z
M 1403 2484 
Q 997 2584 770 2862 
Q 544 3141 544 3541 
Q 544 4100 942 4425 
Q 1341 4750 2034 4750 
Q 2731 4750 3128 4425 
Q 3525 4100 3525 3541 
Q 3525 3141 3298 2862 
Q 3072 2584 2669 2484 
Q 3125 2378 3379 2068 
Q 3634 1759 3634 1313 
Q 3634 634 3220 271 
Q 2806 -91 2034 -91 
Q 1263 -91 848 271 
Q 434 634 434 1313 
Q 434 1759 690 2068 
Q 947 2378 1403 2484 
z
M 1172 3481 
Q 1172 3119 1398 2916 
Q 1625 2713 2034 2713 
Q 2441 2713 2670 2916 
Q 2900 3119 2900 3481 
Q 2900 3844 2670 4047 
Q 2441 4250 2034 4250 
Q 1625 4250 1398 4047 
Q 1172 3844 1172 3481 
z
" id="DejaVuSans-38" transform="scale(0.015625)"/>
       </defs>
       <use xlink:href="#DejaVuSans-32"/>
       <use x="63.623047" xlink:href="#DejaVuSans-38"/>
      </g>
     </g>
    </g>
    <g id="xtick_11">
     <g id="line2d_11">
      <g>
       <use style="stroke:#000000;stroke-width:0.8;" x="221.972465" xlink:href="#mbdb21423b2" y="239.955539"/>
      </g>
     </g>
     <g id="text_11">
      <!-- 31 -->
      <g transform="translate(219.424671 261.326379)rotate(-45)scale(0.1 -0.1)">
       <use xlink:href="#DejaVuSans-33"/>
       <use x="63.623047" xlink:href="#DejaVuSans-31"/>
      </g>
     </g>
    </g>
    <g id="xtick_12">
     <g id="line2d_12">
      <g>
       <use style="stroke:#000000;stroke-width:0.8;" x="236.147674" xlink:href="#mbdb21423b2" y="239.955539"/>
      </g>
     </g>
     <g id="text_12">
      <!-- 34 -->
      <g transform="translate(233.59988 261.326379)rotate(-45)scale(0.1 -0.1)">
       <use xlink:href="#DejaVuSans-33"/>
       <use x="63.623047" xlink:href="#DejaVuSans-34"/>
      </g>
     </g>
    </g>
    <g id="xtick_13">
     <g id="line2d_13">
      <g>
       <use style="stroke:#000000;stroke-width:0.8;" x="250.322884" xlink:href="#mbdb21423b2" y="239.955539"/>
      </g>
     </g>
     <g id="text_13">
      <!-- 37 -->
      <g transform="translate(247.77509 261.326379)rotate(-45)scale(0.1 -0.1)">
       <use xlink:href="#DejaVuSans-33"/>
       <use x="63.623047" xlink:href="#DejaVuSans-37"/>
      </g>
     </g>
    </g>
    <g id="xtick_14">
     <g id="line2d_14">
      <g>
       <use style="stroke:#000000;stroke-width:0.8;" x="264.498093" xlink:href="#mbdb21423b2" y="239.955539"/>
      </g>
     </g>
     <g id="text_14">
      <!-- 40 -->
      <g transform="translate(261.950299 261.326379)rotate(-45)scale(0.1 -0.1)">
       <use xlink:href="#DejaVuSans-34"/>
       <use x="63.623047" xlink:href="#DejaVuSans-30"/>
      </g>
     </g>
    </g>
    <g id="xtick_15">
     <g id="line2d_15">
      <g>
       <use style="stroke:#000000;stroke-width:0.8;" x="278.673302" xlink:href="#mbdb21423b2" y="239.955539"/>
      </g>
     </g>
     <g id="text_15">
      <!-- 43 -->
      <g transform="translate(276.125508 261.326379)rotate(-45)scale(0.1 -0.1)">
       <use xlink:href="#DejaVuSans-34"/>
       <use x="63.623047" xlink:href="#DejaVuSans-33"/>
      </g>
     </g>
    </g>
    <g id="xtick_16">
     <g id="line2d_16">
      <g>
       <use style="stroke:#000000;stroke-width:0.8;" x="292.848512" xlink:href="#mbdb21423b2" y="239.955539"/>
      </g>
     </g>
     <g id="text_16">
      <!-- 46 -->
      <g transform="translate(290.300717 261.326379)rotate(-45)scale(0.1 -0.1)">
       <use xlink:href="#DejaVuSans-34"/>
       <use x="63.623047" xlink:href="#DejaVuSans-36"/>
      </g>
     </g>
    </g>
    <g id="xtick_17">
     <g id="line2d_17">
      <g>
       <use style="stroke:#000000;stroke-width:0.8;" x="307.023721" xlink:href="#mbdb21423b2" y="239.955539"/>
      </g>
     </g>
     <g id="text_17">
      <!-- 49 -->
      <g transform="translate(304.475927 261.326379)rotate(-45)scale(0.1 -0.1)">
       <use xlink:href="#DejaVuSans-34"/>
       <use x="63.623047" xlink:href="#DejaVuSans-39"/>
      </g>
     </g>
    </g>
    <g id="xtick_18">
     <g id="line2d_18">
      <g>
       <use style="stroke:#000000;stroke-width:0.8;" x="321.19893" xlink:href="#mbdb21423b2" y="239.955539"/>
      </g>
     </g>
     <g id="text_18">
      <!-- 52 -->
      <g transform="translate(318.651136 261.326379)rotate(-45)scale(0.1 -0.1)">
       <use xlink:href="#DejaVuSans-35"/>
       <use x="63.623047" xlink:href="#DejaVuSans-32"/>
      </g>
     </g>
    </g>
    <g id="xtick_19">
     <g id="line2d_19">
      <g>
       <use style="stroke:#000000;stroke-width:0.8;" x="335.374139" xlink:href="#mbdb21423b2" y="239.955539"/>
      </g>
     </g>
     <g id="text_19">
      <!-- 55 -->
      <g transform="translate(332.826345 261.326379)rotate(-45)scale(0.1 -0.1)">
       <use xlink:href="#DejaVuSans-35"/>
       <use x="63.623047" xlink:href="#DejaVuSans-35"/>
      </g>
     </g>
    </g>
    <g id="xtick_20">
     <g id="line2d_20">
      <g>
       <use style="stroke:#000000;stroke-width:0.8;" x="349.549349" xlink:href="#mbdb21423b2" y="239.955539"/>
      </g>
     </g>
     <g id="text_20">
      <!-- 58 -->
      <g transform="translate(347.001555 261.326379)rotate(-45)scale(0.1 -0.1)">
       <use xlink:href="#DejaVuSans-35"/>
       <use x="63.623047" xlink:href="#DejaVuSans-38"/>
      </g>
     </g>
    </g>
    <g id="text_21">
     <!-- Class name length -->
     <g transform="translate(177.885781 274.395378)scale(0.1 -0.1)">
      <defs>
       <path d="M 4122 4306 
L 4122 3641 
Q 3803 3938 3442 4084 
Q 3081 4231 2675 4231 
Q 1875 4231 1450 3742 
Q 1025 3253 1025 2328 
Q 1025 1406 1450 917 
Q 1875 428 2675 428 
Q 3081 428 3442 575 
Q 3803 722 4122 1019 
L 4122 359 
Q 3791 134 3420 21 
Q 3050 -91 2638 -91 
Q 1578 -91 968 557 
Q 359 1206 359 2328 
Q 359 3453 968 4101 
Q 1578 4750 2638 4750 
Q 3056 4750 3426 4639 
Q 3797 4528 4122 4306 
z
" id="DejaVuSans-43" transform="scale(0.015625)"/>
       <path d="M 603 4863 
L 1178 4863 
L 1178 0 
L 603 0 
L 603 4863 
z
" id="DejaVuSans-6c" transform="scale(0.015625)"/>
       <path d="M 2194 1759 
Q 1497 1759 1228 1600 
Q 959 1441 959 1056 
Q 959 750 1161 570 
Q 1363 391 1709 391 
Q 2188 391 2477 730 
Q 2766 1069 2766 1631 
L 2766 1759 
L 2194 1759 
z
M 3341 1997 
L 3341 0 
L 2766 0 
L 2766 531 
Q 2569 213 2275 61 
Q 1981 -91 1556 -91 
Q 1019 -91 701 211 
Q 384 513 384 1019 
Q 384 1609 779 1909 
Q 1175 2209 1959 2209 
L 2766 2209 
L 2766 2266 
Q 2766 2663 2505 2880 
Q 2244 3097 1772 3097 
Q 1472 3097 1187 3025 
Q 903 2953 641 2809 
L 641 3341 
Q 956 3463 1253 3523 
Q 1550 3584 1831 3584 
Q 2591 3584 2966 3190 
Q 3341 2797 3341 1997 
z
" id="DejaVuSans-61" transform="scale(0.015625)"/>
       <path d="M 2834 3397 
L 2834 2853 
Q 2591 2978 2328 3040 
Q 2066 3103 1784 3103 
Q 1356 3103 1142 2972 
Q 928 2841 928 2578 
Q 928 2378 1081 2264 
Q 1234 2150 1697 2047 
L 1894 2003 
Q 2506 1872 2764 1633 
Q 3022 1394 3022 966 
Q 3022 478 2636 193 
Q 2250 -91 1575 -91 
Q 1294 -91 989 -36 
Q 684 19 347 128 
L 347 722 
Q 666 556 975 473 
Q 1284 391 1588 391 
Q 1994 391 2212 530 
Q 2431 669 2431 922 
Q 2431 1156 2273 1281 
Q 2116 1406 1581 1522 
L 1381 1569 
Q 847 1681 609 1914 
Q 372 2147 372 2553 
Q 372 3047 722 3315 
Q 1072 3584 1716 3584 
Q 2034 3584 2315 3537 
Q 2597 3491 2834 3397 
z
" id="DejaVuSans-73" transform="scale(0.015625)"/>
       <path id="DejaVuSans-20" transform="scale(0.015625)"/>
       <path d="M 3513 2113 
L 3513 0 
L 2938 0 
L 2938 2094 
Q 2938 2591 2744 2837 
Q 2550 3084 2163 3084 
Q 1697 3084 1428 2787 
Q 1159 2491 1159 1978 
L 1159 0 
L 581 0 
L 581 3500 
L 1159 3500 
L 1159 2956 
Q 1366 3272 1645 3428 
Q 1925 3584 2291 3584 
Q 2894 3584 3203 3211 
Q 3513 2838 3513 2113 
z
" id="DejaVuSans-6e" transform="scale(0.015625)"/>
       <path d="M 3328 2828 
Q 3544 3216 3844 3400 
Q 4144 3584 4550 3584 
Q 5097 3584 5394 3201 
Q 5691 2819 5691 2113 
L 5691 0 
L 5113 0 
L 5113 2094 
Q 5113 2597 4934 2840 
Q 4756 3084 4391 3084 
Q 3944 3084 3684 2787 
Q 3425 2491 3425 1978 
L 3425 0 
L 2847 0 
L 2847 2094 
Q 2847 2600 2669 2842 
Q 2491 3084 2119 3084 
Q 1678 3084 1418 2786 
Q 1159 2488 1159 1978 
L 1159 0 
L 581 0 
L 581 3500 
L 1159 3500 
L 1159 2956 
Q 1356 3278 1631 3431 
Q 1906 3584 2284 3584 
Q 2666 3584 2933 3390 
Q 3200 3197 3328 2828 
z
" id="DejaVuSans-6d" transform="scale(0.015625)"/>
       <path d="M 3597 1894 
L 3597 1613 
L 953 1613 
Q 991 1019 1311 708 
Q 1631 397 2203 397 
Q 2534 397 2845 478 
Q 3156 559 3463 722 
L 3463 178 
Q 3153 47 2828 -22 
Q 2503 -91 2169 -91 
Q 1331 -91 842 396 
Q 353 884 353 1716 
Q 353 2575 817 3079 
Q 1281 3584 2069 3584 
Q 2775 3584 3186 3129 
Q 3597 2675 3597 1894 
z
M 3022 2063 
Q 3016 2534 2758 2815 
Q 2500 3097 2075 3097 
Q 1594 3097 1305 2825 
Q 1016 2553 972 2059 
L 3022 2063 
z
" id="DejaVuSans-65" transform="scale(0.015625)"/>
       <path d="M 2906 1791 
Q 2906 2416 2648 2759 
Q 2391 3103 1925 3103 
Q 1463 3103 1205 2759 
Q 947 2416 947 1791 
Q 947 1169 1205 825 
Q 1463 481 1925 481 
Q 2391 481 2648 825 
Q 2906 1169 2906 1791 
z
M 3481 434 
Q 3481 -459 3084 -895 
Q 2688 -1331 1869 -1331 
Q 1566 -1331 1297 -1286 
Q 1028 -1241 775 -1147 
L 775 -588 
Q 1028 -725 1275 -790 
Q 1522 -856 1778 -856 
Q 2344 -856 2625 -561 
Q 2906 -266 2906 331 
L 2906 616 
Q 2728 306 2450 153 
Q 2172 0 1784 0 
Q 1141 0 747 490 
Q 353 981 353 1791 
Q 353 2603 747 3093 
Q 1141 3584 1784 3584 
Q 2172 3584 2450 3431 
Q 2728 3278 2906 2969 
L 2906 3500 
L 3481 3500 
L 3481 434 
z
" id="DejaVuSans-67" transform="scale(0.015625)"/>
       <path d="M 1172 4494 
L 1172 3500 
L 2356 3500 
L 2356 3053 
L 1172 3053 
L 1172 1153 
Q 1172 725 1289 603 
Q 1406 481 1766 481 
L 2356 481 
L 2356 0 
L 1766 0 
Q 1100 0 847 248 
Q 594 497 594 1153 
L 594 3053 
L 172 3053 
L 172 3500 
L 594 3500 
L 594 4494 
L 1172 4494 
z
" id="DejaVuSans-74" transform="scale(0.015625)"/>
       <path d="M 3513 2113 
L 3513 0 
L 2938 0 
L 2938 2094 
Q 2938 2591 2744 2837 
Q 2550 3084 2163 3084 
Q 1697 3084 1428 2787 
Q 1159 2491 1159 1978 
L 1159 0 
L 581 0 
L 581 4863 
L 1159 4863 
L 1159 2956 
Q 1366 3272 1645 3428 
Q 1925 3584 2291 3584 
Q 2894 3584 3203 3211 
Q 3513 2838 3513 2113 
z
" id="DejaVuSans-68" transform="scale(0.015625)"/>
      </defs>
      <use xlink:href="#DejaVuSans-43"/>
      <use x="69.824219" xlink:href="#DejaVuSans-6c"/>
      <use x="97.607422" xlink:href="#DejaVuSans-61"/>
      <use x="158.886719" xlink:href="#DejaVuSans-73"/>
      <use x="210.986328" xlink:href="#DejaVuSans-73"/>
      <use x="263.085938" xlink:href="#DejaVuSans-20"/>
      <use x="294.873047" xlink:href="#DejaVuSans-6e"/>
      <use x="358.251953" xlink:href="#DejaVuSans-61"/>
      <use x="419.53125" xlink:href="#DejaVuSans-6d"/>
      <use x="516.943359" xlink:href="#DejaVuSans-65"/>
      <use x="578.466797" xlink:href="#DejaVuSans-20"/>
      <use x="610.253906" xlink:href="#DejaVuSans-6c"/>
      <use x="638.037109" xlink:href="#DejaVuSans-65"/>
      <use x="699.560547" xlink:href="#DejaVuSans-6e"/>
      <use x="762.939453" xlink:href="#DejaVuSans-67"/>
      <use x="826.416016" xlink:href="#DejaVuSans-74"/>
      <use x="865.625" xlink:href="#DejaVuSans-68"/>
     </g>
    </g>
   </g>
   <g id="matplotlib.axis_2">
    <g id="ytick_1">
     <g id="line2d_21">
      <defs>
       <path d="M 0 0 
L -3.5 0 
" id="m49233c5962" style="stroke:#000000;stroke-width:0.8;"/>
      </defs>
      <g>
       <use style="stroke:#000000;stroke-width:0.8;" x="63.47" xlink:href="#m49233c5962" y="239.955539"/>
      </g>
     </g>
     <g id="text_22">
      <!-- 0 -->
      <g transform="translate(50.1075 243.754758)scale(0.1 -0.1)">
       <use xlink:href="#DejaVuSans-30"/>
      </g>
     </g>
    </g>
    <g id="ytick_2">
     <g id="line2d_22">
      <g>
       <use style="stroke:#000000;stroke-width:0.8;" x="63.47" xlink:href="#m49233c5962" y="213.328968"/>
      </g>
     </g>
     <g id="text_23">
      <!-- 10000 -->
      <g transform="translate(24.6575 217.128187)scale(0.1 -0.1)">
       <use xlink:href="#DejaVuSans-31"/>
       <use x="63.623047" xlink:href="#DejaVuSans-30"/>
       <use x="127.246094" xlink:href="#DejaVuSans-30"/>
       <use x="190.869141" xlink:href="#DejaVuSans-30"/>
       <use x="254.492188" xlink:href="#DejaVuSans-30"/>
      </g>
     </g>
    </g>
    <g id="ytick_3">
     <g id="line2d_23">
      <g>
       <use style="stroke:#000000;stroke-width:0.8;" x="63.47" xlink:href="#m49233c5962" y="186.702397"/>
      </g>
     </g>
     <g id="text_24">
      <!-- 20000 -->
      <g transform="translate(24.6575 190.501616)scale(0.1 -0.1)">
       <use xlink:href="#DejaVuSans-32"/>
       <use x="63.623047" xlink:href="#DejaVuSans-30"/>
       <use x="127.246094" xlink:href="#DejaVuSans-30"/>
       <use x="190.869141" xlink:href="#DejaVuSans-30"/>
       <use x="254.492188" xlink:href="#DejaVuSans-30"/>
      </g>
     </g>
    </g>
    <g id="ytick_4">
     <g id="line2d_24">
      <g>
       <use style="stroke:#000000;stroke-width:0.8;" x="63.47" xlink:href="#m49233c5962" y="160.075826"/>
      </g>
     </g>
     <g id="text_25">
      <!-- 30000 -->
      <g transform="translate(24.6575 163.875045)scale(0.1 -0.1)">
       <use xlink:href="#DejaVuSans-33"/>
       <use x="63.623047" xlink:href="#DejaVuSans-30"/>
       <use x="127.246094" xlink:href="#DejaVuSans-30"/>
       <use x="190.869141" xlink:href="#DejaVuSans-30"/>
       <use x="254.492188" xlink:href="#DejaVuSans-30"/>
      </g>
     </g>
    </g>
    <g id="ytick_5">
     <g id="line2d_25">
      <g>
       <use style="stroke:#000000;stroke-width:0.8;" x="63.47" xlink:href="#m49233c5962" y="133.449255"/>
      </g>
     </g>
     <g id="text_26">
      <!-- 40000 -->
      <g transform="translate(24.6575 137.248474)scale(0.1 -0.1)">
       <use xlink:href="#DejaVuSans-34"/>
       <use x="63.623047" xlink:href="#DejaVuSans-30"/>
       <use x="127.246094" xlink:href="#DejaVuSans-30"/>
       <use x="190.869141" xlink:href="#DejaVuSans-30"/>
       <use x="254.492188" xlink:href="#DejaVuSans-30"/>
      </g>
     </g>
    </g>
    <g id="ytick_6">
     <g id="line2d_26">
      <g>
       <use style="stroke:#000000;stroke-width:0.8;" x="63.47" xlink:href="#m49233c5962" y="106.822685"/>
      </g>
     </g>
     <g id="text_27">
      <!-- 50000 -->
      <g transform="translate(24.6575 110.621903)scale(0.1 -0.1)">
       <use xlink:href="#DejaVuSans-35"/>
       <use x="63.623047" xlink:href="#DejaVuSans-30"/>
       <use x="127.246094" xlink:href="#DejaVuSans-30"/>
       <use x="190.869141" xlink:href="#DejaVuSans-30"/>
       <use x="254.492188" xlink:href="#DejaVuSans-30"/>
      </g>
     </g>
    </g>
    <g id="ytick_7">
     <g id="line2d_27">
      <g>
       <use style="stroke:#000000;stroke-width:0.8;" x="63.47" xlink:href="#m49233c5962" y="80.196114"/>
      </g>
     </g>
     <g id="text_28">
      <!-- 60000 -->
      <g transform="translate(24.6575 83.995332)scale(0.1 -0.1)">
       <use xlink:href="#DejaVuSans-36"/>
       <use x="63.623047" xlink:href="#DejaVuSans-30"/>
       <use x="127.246094" xlink:href="#DejaVuSans-30"/>
       <use x="190.869141" xlink:href="#DejaVuSans-30"/>
       <use x="254.492188" xlink:href="#DejaVuSans-30"/>
      </g>
     </g>
    </g>
    <g id="ytick_8">
     <g id="line2d_28">
      <g>
       <use style="stroke:#000000;stroke-width:0.8;" x="63.47" xlink:href="#m49233c5962" y="53.569543"/>
      </g>
     </g>
     <g id="text_29">
      <!-- 70000 -->
      <g transform="translate(24.6575 57.368761)scale(0.1 -0.1)">
       <use xlink:href="#DejaVuSans-37"/>
       <use x="63.623047" xlink:href="#DejaVuSans-30"/>
       <use x="127.246094" xlink:href="#DejaVuSans-30"/>
       <use x="190.869141" xlink:href="#DejaVuSans-30"/>
       <use x="254.492188" xlink:href="#DejaVuSans-30"/>
      </g>
     </g>
    </g>
    <g id="ytick_9">
     <g id="line2d_29">
      <g>
       <use style="stroke:#000000;stroke-width:0.8;" x="63.47" xlink:href="#m49233c5962" y="26.942972"/>
      </g>
     </g>
     <g id="text_30">
      <!-- 80000 -->
      <g transform="translate(24.6575 30.742191)scale(0.1 -0.1)">
       <use xlink:href="#DejaVuSans-38"/>
       <use x="63.623047" xlink:href="#DejaVuSans-30"/>
       <use x="127.246094" xlink:href="#DejaVuSans-30"/>
       <use x="190.869141" xlink:href="#DejaVuSans-30"/>
       <use x="254.492188" xlink:href="#DejaVuSans-30"/>
      </g>
     </g>
    </g>
    <g id="text_31">
     <!-- Occurrences -->
     <g transform="translate(18.577813 164.607613)rotate(-90)scale(0.1 -0.1)">
      <defs>
       <path d="M 2522 4238 
Q 1834 4238 1429 3725 
Q 1025 3213 1025 2328 
Q 1025 1447 1429 934 
Q 1834 422 2522 422 
Q 3209 422 3611 934 
Q 4013 1447 4013 2328 
Q 4013 3213 3611 3725 
Q 3209 4238 2522 4238 
z
M 2522 4750 
Q 3503 4750 4090 4092 
Q 4678 3434 4678 2328 
Q 4678 1225 4090 567 
Q 3503 -91 2522 -91 
Q 1538 -91 948 565 
Q 359 1222 359 2328 
Q 359 3434 948 4092 
Q 1538 4750 2522 4750 
z
" id="DejaVuSans-4f" transform="scale(0.015625)"/>
       <path d="M 3122 3366 
L 3122 2828 
Q 2878 2963 2633 3030 
Q 2388 3097 2138 3097 
Q 1578 3097 1268 2742 
Q 959 2388 959 1747 
Q 959 1106 1268 751 
Q 1578 397 2138 397 
Q 2388 397 2633 464 
Q 2878 531 3122 666 
L 3122 134 
Q 2881 22 2623 -34 
Q 2366 -91 2075 -91 
Q 1284 -91 818 406 
Q 353 903 353 1747 
Q 353 2603 823 3093 
Q 1294 3584 2113 3584 
Q 2378 3584 2631 3529 
Q 2884 3475 3122 3366 
z
" id="DejaVuSans-63" transform="scale(0.015625)"/>
       <path d="M 544 1381 
L 544 3500 
L 1119 3500 
L 1119 1403 
Q 1119 906 1312 657 
Q 1506 409 1894 409 
Q 2359 409 2629 706 
Q 2900 1003 2900 1516 
L 2900 3500 
L 3475 3500 
L 3475 0 
L 2900 0 
L 2900 538 
Q 2691 219 2414 64 
Q 2138 -91 1772 -91 
Q 1169 -91 856 284 
Q 544 659 544 1381 
z
M 1991 3584 
L 1991 3584 
z
" id="DejaVuSans-75" transform="scale(0.015625)"/>
       <path d="M 2631 2963 
Q 2534 3019 2420 3045 
Q 2306 3072 2169 3072 
Q 1681 3072 1420 2755 
Q 1159 2438 1159 1844 
L 1159 0 
L 581 0 
L 581 3500 
L 1159 3500 
L 1159 2956 
Q 1341 3275 1631 3429 
Q 1922 3584 2338 3584 
Q 2397 3584 2469 3576 
Q 2541 3569 2628 3553 
L 2631 2963 
z
" id="DejaVuSans-72" transform="scale(0.015625)"/>
      </defs>
      <use xlink:href="#DejaVuSans-4f"/>
      <use x="78.710938" xlink:href="#DejaVuSans-63"/>
      <use x="133.691406" xlink:href="#DejaVuSans-63"/>
      <use x="188.671875" xlink:href="#DejaVuSans-75"/>
      <use x="252.050781" xlink:href="#DejaVuSans-72"/>
      <use x="291.414062" xlink:href="#DejaVuSans-72"/>
      <use x="330.277344" xlink:href="#DejaVuSans-65"/>
      <use x="391.800781" xlink:href="#DejaVuSans-6e"/>
      <use x="455.179688" xlink:href="#DejaVuSans-63"/>
      <use x="510.160156" xlink:href="#DejaVuSans-65"/>
      <use x="571.683594" xlink:href="#DejaVuSans-73"/>
     </g>
    </g>
   </g>
   <g id="patch_65">
    <path d="M 63.47 239.955539 
L 63.47 26.88 
" style="fill:none;stroke:#000000;stroke-linecap:square;stroke-linejoin:miter;stroke-width:0.8;"/>
   </g>
   <g id="patch_66">
    <path d="M 385.2 239.955539 
L 385.2 26.88 
" style="fill:none;stroke:#000000;stroke-linecap:square;stroke-linejoin:miter;stroke-width:0.8;"/>
   </g>
   <g id="patch_67">
    <path d="M 63.47 239.955539 
L 385.2 239.955539 
" style="fill:none;stroke:#000000;stroke-linecap:square;stroke-linejoin:miter;stroke-width:0.8;"/>
   </g>
   <g id="patch_68">
    <path d="M 63.47 26.88 
L 385.2 26.88 
" style="fill:none;stroke:#000000;stroke-linecap:square;stroke-linejoin:miter;stroke-width:0.8;"/>
   </g>
   <g id="text_32">
    <!-- Number of Characters in Class Names -->
    <g transform="translate(110.084687 20.88)scale(0.12 -0.12)">
     <defs>
      <path d="M 628 4666 
L 1478 4666 
L 3547 763 
L 3547 4666 
L 4159 4666 
L 4159 0 
L 3309 0 
L 1241 3903 
L 1241 0 
L 628 0 
L 628 4666 
z
" id="DejaVuSans-4e" transform="scale(0.015625)"/>
      <path d="M 3116 1747 
Q 3116 2381 2855 2742 
Q 2594 3103 2138 3103 
Q 1681 3103 1420 2742 
Q 1159 2381 1159 1747 
Q 1159 1113 1420 752 
Q 1681 391 2138 391 
Q 2594 391 2855 752 
Q 3116 1113 3116 1747 
z
M 1159 2969 
Q 1341 3281 1617 3432 
Q 1894 3584 2278 3584 
Q 2916 3584 3314 3078 
Q 3713 2572 3713 1747 
Q 3713 922 3314 415 
Q 2916 -91 2278 -91 
Q 1894 -91 1617 61 
Q 1341 213 1159 525 
L 1159 0 
L 581 0 
L 581 4863 
L 1159 4863 
L 1159 2969 
z
" id="DejaVuSans-62" transform="scale(0.015625)"/>
      <path d="M 1959 3097 
Q 1497 3097 1228 2736 
Q 959 2375 959 1747 
Q 959 1119 1226 758 
Q 1494 397 1959 397 
Q 2419 397 2687 759 
Q 2956 1122 2956 1747 
Q 2956 2369 2687 2733 
Q 2419 3097 1959 3097 
z
M 1959 3584 
Q 2709 3584 3137 3096 
Q 3566 2609 3566 1747 
Q 3566 888 3137 398 
Q 2709 -91 1959 -91 
Q 1206 -91 779 398 
Q 353 888 353 1747 
Q 353 2609 779 3096 
Q 1206 3584 1959 3584 
z
" id="DejaVuSans-6f" transform="scale(0.015625)"/>
      <path d="M 2375 4863 
L 2375 4384 
L 1825 4384 
Q 1516 4384 1395 4259 
Q 1275 4134 1275 3809 
L 1275 3500 
L 2222 3500 
L 2222 3053 
L 1275 3053 
L 1275 0 
L 697 0 
L 697 3053 
L 147 3053 
L 147 3500 
L 697 3500 
L 697 3744 
Q 697 4328 969 4595 
Q 1241 4863 1831 4863 
L 2375 4863 
z
" id="DejaVuSans-66" transform="scale(0.015625)"/>
      <path d="M 603 3500 
L 1178 3500 
L 1178 0 
L 603 0 
L 603 3500 
z
M 603 4863 
L 1178 4863 
L 1178 4134 
L 603 4134 
L 603 4863 
z
" id="DejaVuSans-69" transform="scale(0.015625)"/>
     </defs>
     <use xlink:href="#DejaVuSans-4e"/>
     <use x="74.804688" xlink:href="#DejaVuSans-75"/>
     <use x="138.183594" xlink:href="#DejaVuSans-6d"/>
     <use x="235.595703" xlink:href="#DejaVuSans-62"/>
     <use x="299.072266" xlink:href="#DejaVuSans-65"/>
     <use x="360.595703" xlink:href="#DejaVuSans-72"/>
     <use x="401.708984" xlink:href="#DejaVuSans-20"/>
     <use x="433.496094" xlink:href="#DejaVuSans-6f"/>
     <use x="494.677734" xlink:href="#DejaVuSans-66"/>
     <use x="529.882812" xlink:href="#DejaVuSans-20"/>
     <use x="561.669922" xlink:href="#DejaVuSans-43"/>
     <use x="631.494141" xlink:href="#DejaVuSans-68"/>
     <use x="694.873047" xlink:href="#DejaVuSans-61"/>
     <use x="756.152344" xlink:href="#DejaVuSans-72"/>
     <use x="797.265625" xlink:href="#DejaVuSans-61"/>
     <use x="858.544922" xlink:href="#DejaVuSans-63"/>
     <use x="913.525391" xlink:href="#DejaVuSans-74"/>
     <use x="952.734375" xlink:href="#DejaVuSans-65"/>
     <use x="1014.257812" xlink:href="#DejaVuSans-72"/>
     <use x="1055.371094" xlink:href="#DejaVuSans-73"/>
     <use x="1107.470703" xlink:href="#DejaVuSans-20"/>
     <use x="1139.257812" xlink:href="#DejaVuSans-69"/>
     <use x="1167.041016" xlink:href="#DejaVuSans-6e"/>
     <use x="1230.419922" xlink:href="#DejaVuSans-20"/>
     <use x="1262.207031" xlink:href="#DejaVuSans-43"/>
     <use x="1332.03125" xlink:href="#DejaVuSans-6c"/>
     <use x="1359.814453" xlink:href="#DejaVuSans-61"/>
     <use x="1421.09375" xlink:href="#DejaVuSans-73"/>
     <use x="1473.193359" xlink:href="#DejaVuSans-73"/>
     <use x="1525.292969" xlink:href="#DejaVuSans-20"/>
     <use x="1557.080078" xlink:href="#DejaVuSans-4e"/>
     <use x="1631.884766" xlink:href="#DejaVuSans-61"/>
     <use x="1693.164062" xlink:href="#DejaVuSans-6d"/>
     <use x="1790.576172" xlink:href="#DejaVuSans-65"/>
     <use x="1852.099609" xlink:href="#DejaVuSans-73"/>
    </g>
   </g>
  </g>
 </g>
 <defs>
  <clipPath id="pb5eb2c96a2">
   <rect height="213.075539" width="321.73" x="63.47" y="26.88"/>
  </clipPath>
 </defs>
</svg>
